<mxfile host="65bd71144e">
    <diagram name="Page-1" id="6vOaWD6bK7h4Z_nTyCYM">
        <mxGraphModel dx="3497" dy="1276" grid="1" gridSize="10" guides="1" tooltips="1" connect="1" arrows="1" fold="1" page="1" pageScale="1" pageWidth="850" pageHeight="1100" math="0" shadow="0">
            <root>
                <mxCell id="0"/>
                <mxCell id="1" parent="0"/>
                <mxCell id="aD8FDuvvDzB4CLu5rnBS-1" value="&lt;div style=&quot;&quot;&gt;&lt;span style=&quot;background-color: initial;&quot;&gt;Library Management System&lt;/span&gt;&lt;/div&gt;" style="swimlane;whiteSpace=wrap;html=1;startSize=23;align=center;" parent="1" vertex="1">
                    <mxGeometry x="80" y="240" width="1450" height="890" as="geometry">
                        <mxRectangle x="-30" y="80" width="70" height="30" as="alternateBounds"/>
                    </mxGeometry>
                </mxCell>
                <mxCell id="aD8FDuvvDzB4CLu5rnBS-9" value="" style="verticalLabelPosition=bottom;verticalAlign=top;html=1;shape=mxgraph.basic.patternFillRect;fillStyle=diagGrid;step=5;fillStrokeWidth=0.2;fillStrokeColor=#dddddd;" parent="aD8FDuvvDzB4CLu5rnBS-1" vertex="1">
                    <mxGeometry x="440" y="210" width="570" height="510" as="geometry"/>
                </mxCell>
                <mxCell id="aD8FDuvvDzB4CLu5rnBS-19" value="STATE/CITY/BRANCH_NAME" style="html=1;whiteSpace=wrap;container=1;recursiveResize=0;collapsible=0;" parent="aD8FDuvvDzB4CLu5rnBS-1" vertex="1">
                    <mxGeometry x="435" y="50" width="580" height="70" as="geometry"/>
                </mxCell>
                <mxCell id="aD8FDuvvDzB4CLu5rnBS-16" value="&lt;blockquote style=&quot;margin: 0 0 0 40px; border: none; padding: 0px;&quot;&gt;&lt;blockquote style=&quot;margin: 0 0 0 40px; border: none; padding: 0px;&quot;&gt;&lt;blockquote style=&quot;margin: 0 0 0 40px; border: none; padding: 0px;&quot;&gt;&lt;blockquote style=&quot;margin: 0 0 0 40px; border: none; padding: 0px;&quot;&gt;&lt;blockquote style=&quot;margin: 0 0 0 40px; border: none; padding: 0px;&quot;&gt;&lt;font style=&quot;font-size: 24px;&quot;&gt;Welcome&lt;/font&gt;&lt;/blockquote&gt;&lt;/blockquote&gt;&lt;/blockquote&gt;&lt;/blockquote&gt;&lt;/blockquote&gt;" style="text;html=1;strokeColor=none;fillColor=none;align=center;verticalAlign=middle;whiteSpace=wrap;rounded=0;" parent="aD8FDuvvDzB4CLu5rnBS-19" vertex="1">
                    <mxGeometry x="50" y="97.5" width="300" height="30" as="geometry"/>
                </mxCell>
                <mxCell id="aD8FDuvvDzB4CLu5rnBS-2" value="" style="whiteSpace=wrap;html=1;aspect=fixed;" parent="aD8FDuvvDzB4CLu5rnBS-1" vertex="1">
                    <mxGeometry x="1430" width="20" height="20" as="geometry"/>
                </mxCell>
                <mxCell id="aD8FDuvvDzB4CLu5rnBS-3" value="" style="whiteSpace=wrap;html=1;aspect=fixed;" parent="aD8FDuvvDzB4CLu5rnBS-1" vertex="1">
                    <mxGeometry x="1410" width="20" height="20" as="geometry"/>
                </mxCell>
                <mxCell id="aD8FDuvvDzB4CLu5rnBS-4" value="" style="whiteSpace=wrap;html=1;aspect=fixed;" parent="aD8FDuvvDzB4CLu5rnBS-1" vertex="1">
                    <mxGeometry x="1390" width="20" height="20" as="geometry"/>
                </mxCell>
                <mxCell id="aD8FDuvvDzB4CLu5rnBS-6" value="" style="line;strokeWidth=4;html=1;perimeter=backbonePerimeter;points=[];outlineConnect=0;" parent="aD8FDuvvDzB4CLu5rnBS-1" vertex="1">
                    <mxGeometry x="1395" y="5" width="10" height="10" as="geometry"/>
                </mxCell>
                <mxCell id="aD8FDuvvDzB4CLu5rnBS-7" value="" style="shape=ext;double=1;whiteSpace=wrap;html=1;aspect=fixed;" parent="aD8FDuvvDzB4CLu5rnBS-1" vertex="1">
                    <mxGeometry x="1415" y="5" width="10" height="10" as="geometry"/>
                </mxCell>
                <mxCell id="aD8FDuvvDzB4CLu5rnBS-8" value="" style="verticalLabelPosition=bottom;verticalAlign=top;html=1;shape=mxgraph.basic.x" parent="aD8FDuvvDzB4CLu5rnBS-1" vertex="1">
                    <mxGeometry x="1435" y="5" width="10" height="10" as="geometry"/>
                </mxCell>
                <mxCell id="aD8FDuvvDzB4CLu5rnBS-10" value="Sign in" style="verticalLabelPosition=bottom;verticalAlign=top;html=1;shape=mxgraph.basic.patternFillRect;fillStyle=diagRev;step=5;fillStrokeWidth=0.2;fillStrokeColor=#dddddd;" parent="aD8FDuvvDzB4CLu5rnBS-1" vertex="1">
                    <mxGeometry x="595" y="477.5" width="120" height="20" as="geometry"/>
                </mxCell>
                <mxCell id="aD8FDuvvDzB4CLu5rnBS-13" value="" style="line;strokeWidth=2;html=1;" parent="aD8FDuvvDzB4CLu5rnBS-1" vertex="1">
                    <mxGeometry x="595" y="427.5" width="290" height="10" as="geometry"/>
                </mxCell>
                <mxCell id="aD8FDuvvDzB4CLu5rnBS-14" value="" style="line;strokeWidth=2;html=1;" parent="aD8FDuvvDzB4CLu5rnBS-1" vertex="1">
                    <mxGeometry x="590" y="337.5" width="290" height="10" as="geometry"/>
                </mxCell>
                <mxCell id="aD8FDuvvDzB4CLu5rnBS-15" value="Sign up" style="verticalLabelPosition=bottom;verticalAlign=top;html=1;shape=mxgraph.basic.patternFillRect;fillStyle=diagRev;step=5;fillStrokeWidth=0.2;fillStrokeColor=#dddddd;" parent="aD8FDuvvDzB4CLu5rnBS-1" vertex="1">
                    <mxGeometry x="765" y="477.5" width="120" height="20" as="geometry"/>
                </mxCell>
                <mxCell id="aD8FDuvvDzB4CLu5rnBS-17" value="Help signing in?" style="text;html=1;strokeColor=none;fillColor=none;align=center;verticalAlign=middle;whiteSpace=wrap;rounded=0;" parent="aD8FDuvvDzB4CLu5rnBS-1" vertex="1">
                    <mxGeometry x="685" y="537.5" width="110" height="30" as="geometry"/>
                </mxCell>
                <mxCell id="aD8FDuvvDzB4CLu5rnBS-35" value="&lt;font style=&quot;font-size: 18px;&quot;&gt;Username&lt;/font&gt;" style="text;html=1;strokeColor=none;fillColor=none;align=center;verticalAlign=middle;whiteSpace=wrap;rounded=0;" parent="aD8FDuvvDzB4CLu5rnBS-1" vertex="1">
                    <mxGeometry x="710" y="317.5" width="60" height="30" as="geometry"/>
                </mxCell>
                <mxCell id="aD8FDuvvDzB4CLu5rnBS-36" value="&lt;font style=&quot;font-size: 18px;&quot;&gt;Password&lt;/font&gt;" style="text;html=1;strokeColor=none;fillColor=none;align=center;verticalAlign=middle;whiteSpace=wrap;rounded=0;" parent="aD8FDuvvDzB4CLu5rnBS-1" vertex="1">
                    <mxGeometry x="715" y="407.5" width="60" height="30" as="geometry"/>
                </mxCell>
                <mxCell id="1fVAfzUauDLI3_tmRGAv-1" value="50" style="text;whiteSpace=wrap;html=1;" parent="1" vertex="1">
                    <mxGeometry x="1550" y="580" width="50" height="40" as="geometry"/>
                </mxCell>
                <mxCell id="89Usu2wHVZIIO48hdldK-11" value="&lt;div style=&quot;&quot;&gt;&lt;span style=&quot;background-color: initial;&quot;&gt;Library Management System&lt;/span&gt;&lt;/div&gt;" style="swimlane;whiteSpace=wrap;html=1;startSize=23;align=center;" parent="1" vertex="1">
                    <mxGeometry x="90" y="1240" width="1450" height="890" as="geometry">
                        <mxRectangle x="-30" y="80" width="70" height="30" as="alternateBounds"/>
                    </mxGeometry>
                </mxCell>
                <mxCell id="89Usu2wHVZIIO48hdldK-12" value="" style="verticalLabelPosition=bottom;verticalAlign=top;html=1;shape=mxgraph.basic.patternFillRect;fillStyle=diagGrid;step=5;fillStrokeWidth=0.2;fillStrokeColor=#dddddd;" parent="89Usu2wHVZIIO48hdldK-11" vertex="1">
                    <mxGeometry x="250" y="190" width="990" height="530" as="geometry"/>
                </mxCell>
                <mxCell id="89Usu2wHVZIIO48hdldK-13" value="STATE/CITY/BRANCH_NAME" style="html=1;whiteSpace=wrap;container=1;recursiveResize=0;collapsible=0;" parent="89Usu2wHVZIIO48hdldK-11" vertex="1">
                    <mxGeometry x="455.01" y="50" width="580" height="70" as="geometry"/>
                </mxCell>
                <mxCell id="89Usu2wHVZIIO48hdldK-15" value="" style="whiteSpace=wrap;html=1;aspect=fixed;" parent="89Usu2wHVZIIO48hdldK-11" vertex="1">
                    <mxGeometry x="1430" width="20" height="20" as="geometry"/>
                </mxCell>
                <mxCell id="89Usu2wHVZIIO48hdldK-16" value="" style="whiteSpace=wrap;html=1;aspect=fixed;" parent="89Usu2wHVZIIO48hdldK-11" vertex="1">
                    <mxGeometry x="1410" width="20" height="20" as="geometry"/>
                </mxCell>
                <mxCell id="89Usu2wHVZIIO48hdldK-17" value="" style="whiteSpace=wrap;html=1;aspect=fixed;" parent="89Usu2wHVZIIO48hdldK-11" vertex="1">
                    <mxGeometry x="1390" width="20" height="20" as="geometry"/>
                </mxCell>
                <mxCell id="89Usu2wHVZIIO48hdldK-18" value="" style="line;strokeWidth=4;html=1;perimeter=backbonePerimeter;points=[];outlineConnect=0;" parent="89Usu2wHVZIIO48hdldK-11" vertex="1">
                    <mxGeometry x="1395" y="5" width="10" height="10" as="geometry"/>
                </mxCell>
                <mxCell id="89Usu2wHVZIIO48hdldK-19" value="" style="shape=ext;double=1;whiteSpace=wrap;html=1;aspect=fixed;" parent="89Usu2wHVZIIO48hdldK-11" vertex="1">
                    <mxGeometry x="1415" y="5" width="10" height="10" as="geometry"/>
                </mxCell>
                <mxCell id="89Usu2wHVZIIO48hdldK-20" value="" style="verticalLabelPosition=bottom;verticalAlign=top;html=1;shape=mxgraph.basic.x" parent="89Usu2wHVZIIO48hdldK-11" vertex="1">
                    <mxGeometry x="1435" y="5" width="10" height="10" as="geometry"/>
                </mxCell>
                <mxCell id="89Usu2wHVZIIO48hdldK-32" value="" style="line;strokeWidth=2;html=1;" parent="89Usu2wHVZIIO48hdldK-11" vertex="1">
                    <mxGeometry x="860" y="350" width="290" height="10" as="geometry"/>
                </mxCell>
                <mxCell id="89Usu2wHVZIIO48hdldK-33" value="" style="line;strokeWidth=2;html=1;" parent="89Usu2wHVZIIO48hdldK-11" vertex="1">
                    <mxGeometry x="860" y="260" width="290" height="10" as="geometry"/>
                </mxCell>
                <mxCell id="89Usu2wHVZIIO48hdldK-34" value="&lt;span style=&quot;font-size: 18px;&quot;&gt;Create Username&lt;/span&gt;" style="text;html=1;strokeColor=none;fillColor=none;align=center;verticalAlign=middle;whiteSpace=wrap;rounded=0;" parent="89Usu2wHVZIIO48hdldK-11" vertex="1">
                    <mxGeometry x="923.75" y="240" width="177.5" height="30" as="geometry"/>
                </mxCell>
                <mxCell id="89Usu2wHVZIIO48hdldK-35" value="&lt;font style=&quot;font-size: 18px;&quot;&gt;Create&amp;nbsp;Password&lt;br&gt;&lt;/font&gt;" style="text;html=1;strokeColor=none;fillColor=none;align=center;verticalAlign=middle;whiteSpace=wrap;rounded=0;" parent="89Usu2wHVZIIO48hdldK-11" vertex="1">
                    <mxGeometry x="932.5" y="330" width="160" height="30" as="geometry"/>
                </mxCell>
                <mxCell id="89Usu2wHVZIIO48hdldK-36" value="" style="line;strokeWidth=2;html=1;" parent="89Usu2wHVZIIO48hdldK-11" vertex="1">
                    <mxGeometry x="860" y="440" width="290" height="10" as="geometry"/>
                </mxCell>
                <mxCell id="89Usu2wHVZIIO48hdldK-38" value="&lt;font style=&quot;font-size: 18px;&quot;&gt;Confirm Password&lt;br&gt;&lt;/font&gt;" style="text;html=1;strokeColor=none;fillColor=none;align=center;verticalAlign=middle;whiteSpace=wrap;rounded=0;" parent="89Usu2wHVZIIO48hdldK-11" vertex="1">
                    <mxGeometry x="941.25" y="420" width="160" height="30" as="geometry"/>
                </mxCell>
                <mxCell id="89Usu2wHVZIIO48hdldK-39" value="" style="shape=ext;double=1;whiteSpace=wrap;html=1;aspect=fixed;" parent="89Usu2wHVZIIO48hdldK-11" vertex="1">
                    <mxGeometry x="520.63" y="510" width="20" height="20" as="geometry"/>
                </mxCell>
                <mxCell id="89Usu2wHVZIIO48hdldK-40" value="&lt;font style=&quot;&quot;&gt;&lt;font style=&quot;font-size: 11px;&quot;&gt;&lt;strong style=&quot;margin: 0px; padding: 0px; font-family: &amp;quot;Open Sans&amp;quot;, Arial, sans-serif; text-align: justify; background-color: rgb(255, 255, 255);&quot;&gt;Lorem Ipsum&lt;/strong&gt;&amp;nbsp;is simply dummy text of the printing and typesetting industry. Lorem Ipsum has been the industry's standard dummy text ever since the 1500s, when an unknown printer took a galley of type and scrambled it to make a type specimen book. It has survived not only five centuries,&lt;/font&gt;&lt;br&gt;&lt;/font&gt;" style="text;html=1;strokeColor=none;fillColor=none;align=center;verticalAlign=middle;whiteSpace=wrap;rounded=0;" parent="89Usu2wHVZIIO48hdldK-11" vertex="1">
                    <mxGeometry x="540.63" y="530" width="408.75" height="30" as="geometry"/>
                </mxCell>
                <mxCell id="89Usu2wHVZIIO48hdldK-41" value="Confim" style="rounded=1;whiteSpace=wrap;html=1;" parent="89Usu2wHVZIIO48hdldK-11" vertex="1">
                    <mxGeometry x="681.5" y="620" width="127" height="40" as="geometry"/>
                </mxCell>
                <mxCell id="89Usu2wHVZIIO48hdldK-42" value="" style="line;strokeWidth=2;html=1;" parent="89Usu2wHVZIIO48hdldK-11" vertex="1">
                    <mxGeometry x="360" y="350" width="290" height="10" as="geometry"/>
                </mxCell>
                <mxCell id="89Usu2wHVZIIO48hdldK-43" value="" style="line;strokeWidth=2;html=1;" parent="89Usu2wHVZIIO48hdldK-11" vertex="1">
                    <mxGeometry x="360" y="260" width="290" height="10" as="geometry"/>
                </mxCell>
                <mxCell id="89Usu2wHVZIIO48hdldK-44" value="&lt;span style=&quot;font-size: 18px;&quot;&gt;First Name&lt;/span&gt;" style="text;html=1;strokeColor=none;fillColor=none;align=center;verticalAlign=middle;whiteSpace=wrap;rounded=0;" parent="89Usu2wHVZIIO48hdldK-11" vertex="1">
                    <mxGeometry x="408.12" y="240" width="177.5" height="30" as="geometry"/>
                </mxCell>
                <mxCell id="89Usu2wHVZIIO48hdldK-45" value="&lt;font style=&quot;font-size: 18px;&quot;&gt;Last Name&lt;br&gt;&lt;/font&gt;" style="text;html=1;strokeColor=none;fillColor=none;align=center;verticalAlign=middle;whiteSpace=wrap;rounded=0;" parent="89Usu2wHVZIIO48hdldK-11" vertex="1">
                    <mxGeometry x="410" y="330" width="160" height="30" as="geometry"/>
                </mxCell>
                <mxCell id="89Usu2wHVZIIO48hdldK-46" value="" style="line;strokeWidth=2;html=1;" parent="89Usu2wHVZIIO48hdldK-11" vertex="1">
                    <mxGeometry x="360" y="440" width="290" height="10" as="geometry"/>
                </mxCell>
                <mxCell id="89Usu2wHVZIIO48hdldK-47" value="&lt;font style=&quot;font-size: 18px;&quot;&gt;Phone Number&lt;br&gt;&lt;/font&gt;" style="text;html=1;strokeColor=none;fillColor=none;align=center;verticalAlign=middle;whiteSpace=wrap;rounded=0;" parent="89Usu2wHVZIIO48hdldK-11" vertex="1">
                    <mxGeometry x="417.5" y="420" width="160" height="30" as="geometry"/>
                </mxCell>
                <mxCell id="89Usu2wHVZIIO48hdldK-14" value="&lt;blockquote style=&quot;margin: 0 0 0 40px; border: none; padding: 0px;&quot;&gt;&lt;blockquote style=&quot;margin: 0 0 0 40px; border: none; padding: 0px;&quot;&gt;&lt;blockquote style=&quot;margin: 0 0 0 40px; border: none; padding: 0px;&quot;&gt;&lt;blockquote style=&quot;margin: 0 0 0 40px; border: none; padding: 0px;&quot;&gt;&lt;blockquote style=&quot;margin: 0 0 0 40px; border: none; padding: 0px;&quot;&gt;&lt;font style=&quot;font-size: 24px;&quot;&gt;Register&lt;/font&gt;&lt;/blockquote&gt;&lt;/blockquote&gt;&lt;/blockquote&gt;&lt;/blockquote&gt;&lt;/blockquote&gt;" style="text;html=1;strokeColor=none;fillColor=none;align=center;verticalAlign=middle;whiteSpace=wrap;rounded=0;" parent="89Usu2wHVZIIO48hdldK-11" vertex="1">
                    <mxGeometry x="508.5" y="147.5" width="300" height="30" as="geometry"/>
                </mxCell>
                <mxCell id="89Usu2wHVZIIO48hdldK-67" value="&lt;div style=&quot;&quot;&gt;&lt;span style=&quot;background-color: initial;&quot;&gt;Library Management System&lt;/span&gt;&lt;/div&gt;" style="swimlane;whiteSpace=wrap;html=1;startSize=23;align=center;" parent="1" vertex="1">
                    <mxGeometry x="80" y="2210" width="1450" height="930" as="geometry">
                        <mxRectangle x="-30" y="80" width="70" height="30" as="alternateBounds"/>
                    </mxGeometry>
                </mxCell>
                <mxCell id="89Usu2wHVZIIO48hdldK-68" value="" style="verticalLabelPosition=bottom;verticalAlign=top;html=1;shape=mxgraph.basic.patternFillRect;fillStyle=diagGrid;step=5;fillStrokeWidth=0.2;fillStrokeColor=#dddddd;" parent="89Usu2wHVZIIO48hdldK-67" vertex="1">
                    <mxGeometry x="90" y="210" width="1270" height="590" as="geometry"/>
                </mxCell>
                <mxCell id="89Usu2wHVZIIO48hdldK-69" value="STATE/CITY/BRANCH_NAME" style="html=1;whiteSpace=wrap;container=1;recursiveResize=0;collapsible=0;" parent="89Usu2wHVZIIO48hdldK-67" vertex="1">
                    <mxGeometry x="435" y="50" width="580" height="70" as="geometry"/>
                </mxCell>
                <mxCell id="89Usu2wHVZIIO48hdldK-70" value="&lt;blockquote style=&quot;margin: 0 0 0 40px; border: none; padding: 0px;&quot;&gt;&lt;blockquote style=&quot;margin: 0 0 0 40px; border: none; padding: 0px;&quot;&gt;&lt;blockquote style=&quot;margin: 0 0 0 40px; border: none; padding: 0px;&quot;&gt;&lt;blockquote style=&quot;margin: 0 0 0 40px; border: none; padding: 0px;&quot;&gt;&lt;blockquote style=&quot;margin: 0 0 0 40px; border: none; padding: 0px;&quot;&gt;&lt;font style=&quot;font-size: 24px;&quot;&gt;Dashboard&lt;/font&gt;&lt;/blockquote&gt;&lt;/blockquote&gt;&lt;/blockquote&gt;&lt;/blockquote&gt;&lt;/blockquote&gt;" style="text;html=1;strokeColor=none;fillColor=none;align=center;verticalAlign=middle;whiteSpace=wrap;rounded=0;" parent="89Usu2wHVZIIO48hdldK-69" vertex="1">
                    <mxGeometry x="50" y="97.5" width="300" height="30" as="geometry"/>
                </mxCell>
                <mxCell id="89Usu2wHVZIIO48hdldK-71" value="" style="whiteSpace=wrap;html=1;aspect=fixed;" parent="89Usu2wHVZIIO48hdldK-67" vertex="1">
                    <mxGeometry x="1430" width="20" height="20" as="geometry"/>
                </mxCell>
                <mxCell id="89Usu2wHVZIIO48hdldK-72" value="" style="whiteSpace=wrap;html=1;aspect=fixed;" parent="89Usu2wHVZIIO48hdldK-67" vertex="1">
                    <mxGeometry x="1410" width="20" height="20" as="geometry"/>
                </mxCell>
                <mxCell id="89Usu2wHVZIIO48hdldK-73" value="" style="whiteSpace=wrap;html=1;aspect=fixed;" parent="89Usu2wHVZIIO48hdldK-67" vertex="1">
                    <mxGeometry x="1390" width="20" height="20" as="geometry"/>
                </mxCell>
                <mxCell id="89Usu2wHVZIIO48hdldK-74" value="" style="line;strokeWidth=4;html=1;perimeter=backbonePerimeter;points=[];outlineConnect=0;" parent="89Usu2wHVZIIO48hdldK-67" vertex="1">
                    <mxGeometry x="1395" y="5" width="10" height="10" as="geometry"/>
                </mxCell>
                <mxCell id="89Usu2wHVZIIO48hdldK-75" value="" style="shape=ext;double=1;whiteSpace=wrap;html=1;aspect=fixed;" parent="89Usu2wHVZIIO48hdldK-67" vertex="1">
                    <mxGeometry x="1415" y="5" width="10" height="10" as="geometry"/>
                </mxCell>
                <mxCell id="89Usu2wHVZIIO48hdldK-76" value="" style="verticalLabelPosition=bottom;verticalAlign=top;html=1;shape=mxgraph.basic.x" parent="89Usu2wHVZIIO48hdldK-67" vertex="1">
                    <mxGeometry x="1435" y="5" width="10" height="10" as="geometry"/>
                </mxCell>
                <mxCell id="89Usu2wHVZIIO48hdldK-85" value="&amp;nbsp;Accounts" style="rounded=1;whiteSpace=wrap;html=1;" parent="89Usu2wHVZIIO48hdldK-67" vertex="1">
                    <mxGeometry x="160" y="250" width="320" height="40" as="geometry"/>
                </mxCell>
                <mxCell id="89Usu2wHVZIIO48hdldK-94" value="Books" style="rounded=1;whiteSpace=wrap;html=1;" parent="89Usu2wHVZIIO48hdldK-67" vertex="1">
                    <mxGeometry x="540" y="250" width="340" height="40" as="geometry"/>
                </mxCell>
                <mxCell id="89Usu2wHVZIIO48hdldK-95" value="Movies" style="rounded=1;whiteSpace=wrap;html=1;" parent="89Usu2wHVZIIO48hdldK-67" vertex="1">
                    <mxGeometry x="940" y="250" width="330" height="40" as="geometry"/>
                </mxCell>
                <mxCell id="89Usu2wHVZIIO48hdldK-108" value="Add" style="rounded=1;whiteSpace=wrap;html=1;" parent="89Usu2wHVZIIO48hdldK-67" vertex="1">
                    <mxGeometry x="590" y="500" width="270" height="80" as="geometry"/>
                </mxCell>
                <mxCell id="89Usu2wHVZIIO48hdldK-192" value="Return" style="rounded=1;whiteSpace=wrap;html=1;" parent="89Usu2wHVZIIO48hdldK-67" vertex="1">
                    <mxGeometry x="590" y="370" width="270" height="80" as="geometry"/>
                </mxCell>
                <mxCell id="89Usu2wHVZIIO48hdldK-214" value="Sign Out" style="rounded=1;whiteSpace=wrap;html=1;" parent="89Usu2wHVZIIO48hdldK-67" vertex="1">
                    <mxGeometry x="590" y="730" width="270" height="40" as="geometry"/>
                </mxCell>
                <mxCell id="9" value="Remove" style="rounded=1;whiteSpace=wrap;html=1;" parent="89Usu2wHVZIIO48hdldK-67" vertex="1">
                    <mxGeometry x="590" y="620" width="270" height="80" as="geometry"/>
                </mxCell>
                <mxCell id="89Usu2wHVZIIO48hdldK-97" value="" style="verticalLabelPosition=bottom;verticalAlign=top;html=1;shape=mxgraph.basic.patternFillRect;fillStyle=diagGrid;step=5;fillStrokeWidth=0.2;fillStrokeColor=#dddddd;" parent="1" vertex="1">
                    <mxGeometry x="-540" y="3170" width="2840" height="760" as="geometry"/>
                </mxCell>
                <mxCell id="89Usu2wHVZIIO48hdldK-100" value="" style="verticalLabelPosition=bottom;verticalAlign=top;html=1;shape=mxgraph.basic.patternFillRect;fillStyle=diagGrid;step=5;fillStrokeWidth=0.2;fillStrokeColor=#dddddd;" parent="1" vertex="1">
                    <mxGeometry x="-360" y="3310" width="640" height="470" as="geometry"/>
                </mxCell>
                <mxCell id="89Usu2wHVZIIO48hdldK-101" value="" style="verticalLabelPosition=bottom;verticalAlign=top;html=1;shape=mxgraph.basic.patternFillRect;fillStyle=diagGrid;step=5;fillStrokeWidth=0.2;fillStrokeColor=#dddddd;" parent="1" vertex="1">
                    <mxGeometry x="600" y="3310" width="640" height="470" as="geometry"/>
                </mxCell>
                <mxCell id="89Usu2wHVZIIO48hdldK-102" value="" style="verticalLabelPosition=bottom;verticalAlign=top;html=1;shape=mxgraph.basic.patternFillRect;fillStyle=diagGrid;step=5;fillStrokeWidth=0.2;fillStrokeColor=#dddddd;" parent="1" vertex="1">
                    <mxGeometry x="1520" y="3300" width="640" height="470" as="geometry"/>
                </mxCell>
                <mxCell id="89Usu2wHVZIIO48hdldK-112" value="Customer Accounts" style="rounded=1;whiteSpace=wrap;html=1;" parent="1" vertex="1">
                    <mxGeometry x="-87" y="3210" width="127" height="40" as="geometry"/>
                </mxCell>
                <mxCell id="89Usu2wHVZIIO48hdldK-113" value="Books" style="rounded=1;whiteSpace=wrap;html=1;" parent="1" vertex="1">
                    <mxGeometry x="850" y="3210" width="127" height="40" as="geometry"/>
                </mxCell>
                <mxCell id="89Usu2wHVZIIO48hdldK-114" value="Movies" style="rounded=1;whiteSpace=wrap;html=1;" parent="1" vertex="1">
                    <mxGeometry x="1800" y="3210" width="127" height="40" as="geometry"/>
                </mxCell>
                <mxCell id="89Usu2wHVZIIO48hdldK-126" value="Patron" style="swimlane;fontStyle=0;childLayout=stackLayout;horizontal=1;startSize=26;fillColor=none;horizontalStack=0;resizeParent=1;resizeParentMax=0;resizeLast=0;collapsible=1;marginBottom=0;whiteSpace=wrap;html=1;" parent="1" vertex="1">
                    <mxGeometry x="-310" y="3350" width="190" height="286" as="geometry"/>
                </mxCell>
                <mxCell id="89Usu2wHVZIIO48hdldK-127" value="+ customer_id: int PK" style="text;strokeColor=none;fillColor=none;align=left;verticalAlign=top;spacingLeft=4;spacingRight=4;overflow=hidden;rotatable=0;points=[[0,0.5],[1,0.5]];portConstraint=eastwest;whiteSpace=wrap;html=1;" parent="89Usu2wHVZIIO48hdldK-126" vertex="1">
                    <mxGeometry y="26" width="190" height="26" as="geometry"/>
                </mxCell>
                <mxCell id="89Usu2wHVZIIO48hdldK-128" value="+ isbn-13: int FK" style="text;strokeColor=none;fillColor=none;align=left;verticalAlign=top;spacingLeft=4;spacingRight=4;overflow=hidden;rotatable=0;points=[[0,0.5],[1,0.5]];portConstraint=eastwest;whiteSpace=wrap;html=1;" parent="89Usu2wHVZIIO48hdldK-126" vertex="1">
                    <mxGeometry y="52" width="190" height="26" as="geometry"/>
                </mxCell>
                <mxCell id="89Usu2wHVZIIO48hdldK-129" value="+ branch_id:int FK" style="text;strokeColor=none;fillColor=none;align=left;verticalAlign=top;spacingLeft=4;spacingRight=4;overflow=hidden;rotatable=0;points=[[0,0.5],[1,0.5]];portConstraint=eastwest;whiteSpace=wrap;html=1;" parent="89Usu2wHVZIIO48hdldK-126" vertex="1">
                    <mxGeometry y="78" width="190" height="26" as="geometry"/>
                </mxCell>
                <mxCell id="89Usu2wHVZIIO48hdldK-130" value="+ customer_name: varchar" style="text;strokeColor=none;fillColor=none;align=left;verticalAlign=top;spacingLeft=4;spacingRight=4;overflow=hidden;rotatable=0;points=[[0,0.5],[1,0.5]];portConstraint=eastwest;whiteSpace=wrap;html=1;" parent="89Usu2wHVZIIO48hdldK-126" vertex="1">
                    <mxGeometry y="104" width="190" height="26" as="geometry"/>
                </mxCell>
                <mxCell id="89Usu2wHVZIIO48hdldK-131" value="+ phone: int" style="text;strokeColor=none;fillColor=none;align=left;verticalAlign=top;spacingLeft=4;spacingRight=4;overflow=hidden;rotatable=0;points=[[0,0.5],[1,0.5]];portConstraint=eastwest;whiteSpace=wrap;html=1;" parent="89Usu2wHVZIIO48hdldK-126" vertex="1">
                    <mxGeometry y="130" width="190" height="26" as="geometry"/>
                </mxCell>
                <mxCell id="89Usu2wHVZIIO48hdldK-132" value="+ account_type: varchar" style="text;strokeColor=none;fillColor=none;align=left;verticalAlign=top;spacingLeft=4;spacingRight=4;overflow=hidden;rotatable=0;points=[[0,0.5],[1,0.5]];portConstraint=eastwest;whiteSpace=wrap;html=1;" parent="89Usu2wHVZIIO48hdldK-126" vertex="1">
                    <mxGeometry y="156" width="190" height="26" as="geometry"/>
                </mxCell>
                <mxCell id="89Usu2wHVZIIO48hdldK-133" value="+ checked_out: bool" style="text;strokeColor=none;fillColor=none;align=left;verticalAlign=top;spacingLeft=4;spacingRight=4;overflow=hidden;rotatable=0;points=[[0,0.5],[1,0.5]];portConstraint=eastwest;whiteSpace=wrap;html=1;" parent="89Usu2wHVZIIO48hdldK-126" vertex="1">
                    <mxGeometry y="182" width="190" height="26" as="geometry"/>
                </mxCell>
                <mxCell id="89Usu2wHVZIIO48hdldK-134" value="+ limit_reached: bool" style="text;strokeColor=none;fillColor=none;align=left;verticalAlign=top;spacingLeft=4;spacingRight=4;overflow=hidden;rotatable=0;points=[[0,0.5],[1,0.5]];portConstraint=eastwest;whiteSpace=wrap;html=1;" parent="89Usu2wHVZIIO48hdldK-126" vertex="1">
                    <mxGeometry y="208" width="190" height="26" as="geometry"/>
                </mxCell>
                <mxCell id="89Usu2wHVZIIO48hdldK-135" value="+ fees: float" style="text;strokeColor=none;fillColor=none;align=left;verticalAlign=top;spacingLeft=4;spacingRight=4;overflow=hidden;rotatable=0;points=[[0,0.5],[1,0.5]];portConstraint=eastwest;whiteSpace=wrap;html=1;" parent="89Usu2wHVZIIO48hdldK-126" vertex="1">
                    <mxGeometry y="234" width="190" height="26" as="geometry"/>
                </mxCell>
                <mxCell id="89Usu2wHVZIIO48hdldK-136" value="&lt;div&gt;+ status: varchar&lt;/div&gt;" style="text;strokeColor=none;fillColor=none;align=left;verticalAlign=top;spacingLeft=4;spacingRight=4;overflow=hidden;rotatable=0;points=[[0,0.5],[1,0.5]];portConstraint=eastwest;whiteSpace=wrap;html=1;" parent="89Usu2wHVZIIO48hdldK-126" vertex="1">
                    <mxGeometry y="260" width="190" height="26" as="geometry"/>
                </mxCell>
                <mxCell id="89Usu2wHVZIIO48hdldK-137" value="Item" style="swimlane;fontStyle=0;childLayout=stackLayout;horizontal=1;startSize=26;fillColor=none;horizontalStack=0;resizeParent=1;resizeParentMax=0;resizeLast=0;collapsible=1;marginBottom=0;whiteSpace=wrap;html=1;" parent="1" vertex="1">
                    <mxGeometry x="620" y="3360" width="170" height="234" as="geometry"/>
                </mxCell>
                <mxCell id="89Usu2wHVZIIO48hdldK-138" value="+ item_id: int PK" style="text;strokeColor=none;fillColor=none;align=left;verticalAlign=top;spacingLeft=4;spacingRight=4;overflow=hidden;rotatable=0;points=[[0,0.5],[1,0.5]];portConstraint=eastwest;whiteSpace=wrap;html=1;" parent="89Usu2wHVZIIO48hdldK-137" vertex="1">
                    <mxGeometry y="26" width="170" height="26" as="geometry"/>
                </mxCell>
                <mxCell id="89Usu2wHVZIIO48hdldK-139" value="+ type: varchar FK" style="text;strokeColor=none;fillColor=none;align=left;verticalAlign=top;spacingLeft=4;spacingRight=4;overflow=hidden;rotatable=0;points=[[0,0.5],[1,0.5]];portConstraint=eastwest;whiteSpace=wrap;html=1;" parent="89Usu2wHVZIIO48hdldK-137" vertex="1">
                    <mxGeometry y="52" width="170" height="26" as="geometry"/>
                </mxCell>
                <mxCell id="89Usu2wHVZIIO48hdldK-140" value="+ branch_id: int FK" style="text;strokeColor=none;fillColor=none;align=left;verticalAlign=top;spacingLeft=4;spacingRight=4;overflow=hidden;rotatable=0;points=[[0,0.5],[1,0.5]];portConstraint=eastwest;whiteSpace=wrap;html=1;" parent="89Usu2wHVZIIO48hdldK-137" vertex="1">
                    <mxGeometry y="78" width="170" height="26" as="geometry"/>
                </mxCell>
                <mxCell id="89Usu2wHVZIIO48hdldK-141" value="+ customer_id: int null FK" style="text;strokeColor=none;fillColor=none;align=left;verticalAlign=top;spacingLeft=4;spacingRight=4;overflow=hidden;rotatable=0;points=[[0,0.5],[1,0.5]];portConstraint=eastwest;whiteSpace=wrap;html=1;" parent="89Usu2wHVZIIO48hdldK-137" vertex="1">
                    <mxGeometry y="104" width="170" height="26" as="geometry"/>
                </mxCell>
                <mxCell id="89Usu2wHVZIIO48hdldK-142" value="+ shelf_location: varchar" style="text;strokeColor=none;fillColor=none;align=left;verticalAlign=top;spacingLeft=4;spacingRight=4;overflow=hidden;rotatable=0;points=[[0,0.5],[1,0.5]];portConstraint=eastwest;whiteSpace=wrap;html=1;" parent="89Usu2wHVZIIO48hdldK-137" vertex="1">
                    <mxGeometry y="130" width="170" height="26" as="geometry"/>
                </mxCell>
                <mxCell id="89Usu2wHVZIIO48hdldK-143" value="+ status: varchar" style="text;strokeColor=none;fillColor=none;align=left;verticalAlign=top;spacingLeft=4;spacingRight=4;overflow=hidden;rotatable=0;points=[[0,0.5],[1,0.5]];portConstraint=eastwest;whiteSpace=wrap;html=1;" parent="89Usu2wHVZIIO48hdldK-137" vertex="1">
                    <mxGeometry y="156" width="170" height="26" as="geometry"/>
                </mxCell>
                <mxCell id="89Usu2wHVZIIO48hdldK-144" value="&lt;div&gt;+ title: var_char&lt;br&gt;&lt;/div&gt;" style="text;strokeColor=none;fillColor=none;align=left;verticalAlign=top;spacingLeft=4;spacingRight=4;overflow=hidden;rotatable=0;points=[[0,0.5],[1,0.5]];portConstraint=eastwest;whiteSpace=wrap;html=1;" parent="89Usu2wHVZIIO48hdldK-137" vertex="1">
                    <mxGeometry y="182" width="170" height="26" as="geometry"/>
                </mxCell>
                <mxCell id="89Usu2wHVZIIO48hdldK-145" value="+ genre: varchar" style="text;strokeColor=none;fillColor=none;align=left;verticalAlign=top;spacingLeft=4;spacingRight=4;overflow=hidden;rotatable=0;points=[[0,0.5],[1,0.5]];portConstraint=eastwest;whiteSpace=wrap;html=1;" parent="89Usu2wHVZIIO48hdldK-137" vertex="1">
                    <mxGeometry y="208" width="170" height="26" as="geometry"/>
                </mxCell>
                <mxCell id="89Usu2wHVZIIO48hdldK-146" value="Item" style="swimlane;fontStyle=0;childLayout=stackLayout;horizontal=1;startSize=26;fillColor=none;horizontalStack=0;resizeParent=1;resizeParentMax=0;resizeLast=0;collapsible=1;marginBottom=0;whiteSpace=wrap;html=1;" parent="1" vertex="1">
                    <mxGeometry x="1550" y="3360" width="170" height="234" as="geometry"/>
                </mxCell>
                <mxCell id="89Usu2wHVZIIO48hdldK-147" value="+ item_id: int PK" style="text;strokeColor=none;fillColor=none;align=left;verticalAlign=top;spacingLeft=4;spacingRight=4;overflow=hidden;rotatable=0;points=[[0,0.5],[1,0.5]];portConstraint=eastwest;whiteSpace=wrap;html=1;" parent="89Usu2wHVZIIO48hdldK-146" vertex="1">
                    <mxGeometry y="26" width="170" height="26" as="geometry"/>
                </mxCell>
                <mxCell id="89Usu2wHVZIIO48hdldK-148" value="+ type: varchar FK" style="text;strokeColor=none;fillColor=none;align=left;verticalAlign=top;spacingLeft=4;spacingRight=4;overflow=hidden;rotatable=0;points=[[0,0.5],[1,0.5]];portConstraint=eastwest;whiteSpace=wrap;html=1;" parent="89Usu2wHVZIIO48hdldK-146" vertex="1">
                    <mxGeometry y="52" width="170" height="26" as="geometry"/>
                </mxCell>
                <mxCell id="89Usu2wHVZIIO48hdldK-149" value="+ branch_id: int FK" style="text;strokeColor=none;fillColor=none;align=left;verticalAlign=top;spacingLeft=4;spacingRight=4;overflow=hidden;rotatable=0;points=[[0,0.5],[1,0.5]];portConstraint=eastwest;whiteSpace=wrap;html=1;" parent="89Usu2wHVZIIO48hdldK-146" vertex="1">
                    <mxGeometry y="78" width="170" height="26" as="geometry"/>
                </mxCell>
                <mxCell id="89Usu2wHVZIIO48hdldK-150" value="+ customer_id: int null FK" style="text;strokeColor=none;fillColor=none;align=left;verticalAlign=top;spacingLeft=4;spacingRight=4;overflow=hidden;rotatable=0;points=[[0,0.5],[1,0.5]];portConstraint=eastwest;whiteSpace=wrap;html=1;" parent="89Usu2wHVZIIO48hdldK-146" vertex="1">
                    <mxGeometry y="104" width="170" height="26" as="geometry"/>
                </mxCell>
                <mxCell id="89Usu2wHVZIIO48hdldK-151" value="+ shelf_location: varchar" style="text;strokeColor=none;fillColor=none;align=left;verticalAlign=top;spacingLeft=4;spacingRight=4;overflow=hidden;rotatable=0;points=[[0,0.5],[1,0.5]];portConstraint=eastwest;whiteSpace=wrap;html=1;" parent="89Usu2wHVZIIO48hdldK-146" vertex="1">
                    <mxGeometry y="130" width="170" height="26" as="geometry"/>
                </mxCell>
                <mxCell id="89Usu2wHVZIIO48hdldK-152" value="+ status: varchar" style="text;strokeColor=none;fillColor=none;align=left;verticalAlign=top;spacingLeft=4;spacingRight=4;overflow=hidden;rotatable=0;points=[[0,0.5],[1,0.5]];portConstraint=eastwest;whiteSpace=wrap;html=1;" parent="89Usu2wHVZIIO48hdldK-146" vertex="1">
                    <mxGeometry y="156" width="170" height="26" as="geometry"/>
                </mxCell>
                <mxCell id="89Usu2wHVZIIO48hdldK-153" value="&lt;div&gt;+ title: var_char&lt;br&gt;&lt;/div&gt;" style="text;strokeColor=none;fillColor=none;align=left;verticalAlign=top;spacingLeft=4;spacingRight=4;overflow=hidden;rotatable=0;points=[[0,0.5],[1,0.5]];portConstraint=eastwest;whiteSpace=wrap;html=1;" parent="89Usu2wHVZIIO48hdldK-146" vertex="1">
                    <mxGeometry y="182" width="170" height="26" as="geometry"/>
                </mxCell>
                <mxCell id="89Usu2wHVZIIO48hdldK-154" value="+ genre: varchar" style="text;strokeColor=none;fillColor=none;align=left;verticalAlign=top;spacingLeft=4;spacingRight=4;overflow=hidden;rotatable=0;points=[[0,0.5],[1,0.5]];portConstraint=eastwest;whiteSpace=wrap;html=1;" parent="89Usu2wHVZIIO48hdldK-146" vertex="1">
                    <mxGeometry y="208" width="170" height="26" as="geometry"/>
                </mxCell>
                <mxCell id="89Usu2wHVZIIO48hdldK-155" value="Movie" style="swimlane;fontStyle=0;childLayout=stackLayout;horizontal=1;startSize=26;fillColor=none;horizontalStack=0;resizeParent=1;resizeParentMax=0;resizeLast=0;collapsible=1;marginBottom=0;whiteSpace=wrap;html=1;" parent="1" vertex="1">
                    <mxGeometry x="1770" y="3370" width="130" height="130" as="geometry"/>
                </mxCell>
                <mxCell id="89Usu2wHVZIIO48hdldK-156" value="+ isan: int PK" style="text;strokeColor=none;fillColor=none;align=left;verticalAlign=top;spacingLeft=4;spacingRight=4;overflow=hidden;rotatable=0;points=[[0,0.5],[1,0.5]];portConstraint=eastwest;whiteSpace=wrap;html=1;" parent="89Usu2wHVZIIO48hdldK-155" vertex="1">
                    <mxGeometry y="26" width="130" height="26" as="geometry"/>
                </mxCell>
                <mxCell id="89Usu2wHVZIIO48hdldK-157" value="+ item_id: int FK" style="text;strokeColor=none;fillColor=none;align=left;verticalAlign=top;spacingLeft=4;spacingRight=4;overflow=hidden;rotatable=0;points=[[0,0.5],[1,0.5]];portConstraint=eastwest;whiteSpace=wrap;html=1;" parent="89Usu2wHVZIIO48hdldK-155" vertex="1">
                    <mxGeometry y="52" width="130" height="26" as="geometry"/>
                </mxCell>
                <mxCell id="89Usu2wHVZIIO48hdldK-158" value="+ runtime: int" style="text;strokeColor=none;fillColor=none;align=left;verticalAlign=top;spacingLeft=4;spacingRight=4;overflow=hidden;rotatable=0;points=[[0,0.5],[1,0.5]];portConstraint=eastwest;whiteSpace=wrap;html=1;" parent="89Usu2wHVZIIO48hdldK-155" vertex="1">
                    <mxGeometry y="78" width="130" height="26" as="geometry"/>
                </mxCell>
                <mxCell id="89Usu2wHVZIIO48hdldK-159" value="&lt;div&gt;+ type: varchar&lt;/div&gt;" style="text;strokeColor=none;fillColor=none;align=left;verticalAlign=top;spacingLeft=4;spacingRight=4;overflow=hidden;rotatable=0;points=[[0,0.5],[1,0.5]];portConstraint=eastwest;whiteSpace=wrap;html=1;" parent="89Usu2wHVZIIO48hdldK-155" vertex="1">
                    <mxGeometry y="104" width="130" height="26" as="geometry"/>
                </mxCell>
                <mxCell id="89Usu2wHVZIIO48hdldK-160" value="Book" style="swimlane;fontStyle=0;childLayout=stackLayout;horizontal=1;startSize=26;fillColor=none;horizontalStack=0;resizeParent=1;resizeParentMax=0;resizeLast=0;collapsible=1;marginBottom=0;whiteSpace=wrap;html=1;" parent="1" vertex="1">
                    <mxGeometry x="850" y="3360" width="180" height="182" as="geometry"/>
                </mxCell>
                <mxCell id="89Usu2wHVZIIO48hdldK-161" value="+ isbn-13: int PK" style="text;strokeColor=none;fillColor=none;align=left;verticalAlign=top;spacingLeft=4;spacingRight=4;overflow=hidden;rotatable=0;points=[[0,0.5],[1,0.5]];portConstraint=eastwest;whiteSpace=wrap;html=1;" parent="89Usu2wHVZIIO48hdldK-160" vertex="1">
                    <mxGeometry y="26" width="180" height="26" as="geometry"/>
                </mxCell>
                <mxCell id="89Usu2wHVZIIO48hdldK-162" value="+ item_id: int FK" style="text;strokeColor=none;fillColor=none;align=left;verticalAlign=top;spacingLeft=4;spacingRight=4;overflow=hidden;rotatable=0;points=[[0,0.5],[1,0.5]];portConstraint=eastwest;whiteSpace=wrap;html=1;" parent="89Usu2wHVZIIO48hdldK-160" vertex="1">
                    <mxGeometry y="52" width="180" height="26" as="geometry"/>
                </mxCell>
                <mxCell id="89Usu2wHVZIIO48hdldK-163" value="+ author_id: int FK" style="text;strokeColor=none;fillColor=none;align=left;verticalAlign=top;spacingLeft=4;spacingRight=4;overflow=hidden;rotatable=0;points=[[0,0.5],[1,0.5]];portConstraint=eastwest;whiteSpace=wrap;html=1;" parent="89Usu2wHVZIIO48hdldK-160" vertex="1">
                    <mxGeometry y="78" width="180" height="26" as="geometry"/>
                </mxCell>
                <mxCell id="89Usu2wHVZIIO48hdldK-164" value="+ type: varchar" style="text;strokeColor=none;fillColor=none;align=left;verticalAlign=top;spacingLeft=4;spacingRight=4;overflow=hidden;rotatable=0;points=[[0,0.5],[1,0.5]];portConstraint=eastwest;whiteSpace=wrap;html=1;" parent="89Usu2wHVZIIO48hdldK-160" vertex="1">
                    <mxGeometry y="104" width="180" height="26" as="geometry"/>
                </mxCell>
                <mxCell id="89Usu2wHVZIIO48hdldK-165" value="+ pages: int" style="text;strokeColor=none;fillColor=none;align=left;verticalAlign=top;spacingLeft=4;spacingRight=4;overflow=hidden;rotatable=0;points=[[0,0.5],[1,0.5]];portConstraint=eastwest;whiteSpace=wrap;html=1;" parent="89Usu2wHVZIIO48hdldK-160" vertex="1">
                    <mxGeometry y="130" width="180" height="26" as="geometry"/>
                </mxCell>
                <mxCell id="89Usu2wHVZIIO48hdldK-166" value="+ ar: bool" style="text;strokeColor=none;fillColor=none;align=left;verticalAlign=top;spacingLeft=4;spacingRight=4;overflow=hidden;rotatable=0;points=[[0,0.5],[1,0.5]];portConstraint=eastwest;whiteSpace=wrap;html=1;" parent="89Usu2wHVZIIO48hdldK-160" vertex="1">
                    <mxGeometry y="156" width="180" height="26" as="geometry"/>
                </mxCell>
                <mxCell id="89Usu2wHVZIIO48hdldK-167" value="Location" style="swimlane;fontStyle=0;childLayout=stackLayout;horizontal=1;startSize=26;fillColor=none;horizontalStack=0;resizeParent=1;resizeParentMax=0;resizeLast=0;collapsible=1;marginBottom=0;whiteSpace=wrap;html=1;" parent="1" vertex="1">
                    <mxGeometry x="1070" y="3360" width="140" height="156" as="geometry"/>
                </mxCell>
                <mxCell id="89Usu2wHVZIIO48hdldK-168" value="+ branch_id: int PK" style="text;strokeColor=none;fillColor=none;align=left;verticalAlign=top;spacingLeft=4;spacingRight=4;overflow=hidden;rotatable=0;points=[[0,0.5],[1,0.5]];portConstraint=eastwest;whiteSpace=wrap;html=1;" parent="89Usu2wHVZIIO48hdldK-167" vertex="1">
                    <mxGeometry y="26" width="140" height="26" as="geometry"/>
                </mxCell>
                <mxCell id="89Usu2wHVZIIO48hdldK-169" value="+ isbn-13: int FK" style="text;strokeColor=none;fillColor=none;align=left;verticalAlign=top;spacingLeft=4;spacingRight=4;overflow=hidden;rotatable=0;points=[[0,0.5],[1,0.5]];portConstraint=eastwest;whiteSpace=wrap;html=1;" parent="89Usu2wHVZIIO48hdldK-167" vertex="1">
                    <mxGeometry y="52" width="140" height="26" as="geometry"/>
                </mxCell>
                <mxCell id="89Usu2wHVZIIO48hdldK-170" value="+ customer_id: int FK" style="text;strokeColor=none;fillColor=none;align=left;verticalAlign=top;spacingLeft=4;spacingRight=4;overflow=hidden;rotatable=0;points=[[0,0.5],[1,0.5]];portConstraint=eastwest;whiteSpace=wrap;html=1;" parent="89Usu2wHVZIIO48hdldK-167" vertex="1">
                    <mxGeometry y="78" width="140" height="26" as="geometry"/>
                </mxCell>
                <mxCell id="89Usu2wHVZIIO48hdldK-171" value="+ address: varchar" style="text;strokeColor=none;fillColor=none;align=left;verticalAlign=top;spacingLeft=4;spacingRight=4;overflow=hidden;rotatable=0;points=[[0,0.5],[1,0.5]];portConstraint=eastwest;whiteSpace=wrap;html=1;" parent="89Usu2wHVZIIO48hdldK-167" vertex="1">
                    <mxGeometry y="104" width="140" height="26" as="geometry"/>
                </mxCell>
                <mxCell id="89Usu2wHVZIIO48hdldK-172" value="+ phone: int" style="text;strokeColor=none;fillColor=none;align=left;verticalAlign=top;spacingLeft=4;spacingRight=4;overflow=hidden;rotatable=0;points=[[0,0.5],[1,0.5]];portConstraint=eastwest;whiteSpace=wrap;html=1;" parent="89Usu2wHVZIIO48hdldK-167" vertex="1">
                    <mxGeometry y="130" width="140" height="26" as="geometry"/>
                </mxCell>
                <mxCell id="89Usu2wHVZIIO48hdldK-181" value="Author" style="swimlane;fontStyle=0;childLayout=stackLayout;horizontal=1;startSize=26;fillColor=none;horizontalStack=0;resizeParent=1;resizeParentMax=0;resizeLast=0;collapsible=1;marginBottom=0;whiteSpace=wrap;html=1;" parent="1" vertex="1">
                    <mxGeometry x="870" y="3560" width="140" height="104" as="geometry"/>
                </mxCell>
                <mxCell id="89Usu2wHVZIIO48hdldK-182" value="+ author_id: int PK" style="text;strokeColor=none;fillColor=none;align=left;verticalAlign=top;spacingLeft=4;spacingRight=4;overflow=hidden;rotatable=0;points=[[0,0.5],[1,0.5]];portConstraint=eastwest;whiteSpace=wrap;html=1;" parent="89Usu2wHVZIIO48hdldK-181" vertex="1">
                    <mxGeometry y="26" width="140" height="26" as="geometry"/>
                </mxCell>
                <mxCell id="89Usu2wHVZIIO48hdldK-183" value="+ isbn-13: int fk" style="text;strokeColor=none;fillColor=none;align=left;verticalAlign=top;spacingLeft=4;spacingRight=4;overflow=hidden;rotatable=0;points=[[0,0.5],[1,0.5]];portConstraint=eastwest;whiteSpace=wrap;html=1;" parent="89Usu2wHVZIIO48hdldK-181" vertex="1">
                    <mxGeometry y="52" width="140" height="26" as="geometry"/>
                </mxCell>
                <mxCell id="89Usu2wHVZIIO48hdldK-184" value="+ author_name: varchar" style="text;strokeColor=none;fillColor=none;align=left;verticalAlign=top;spacingLeft=4;spacingRight=4;overflow=hidden;rotatable=0;points=[[0,0.5],[1,0.5]];portConstraint=eastwest;whiteSpace=wrap;html=1;" parent="89Usu2wHVZIIO48hdldK-181" vertex="1">
                    <mxGeometry y="78" width="140" height="26" as="geometry"/>
                </mxCell>
                <mxCell id="89Usu2wHVZIIO48hdldK-185" value="ttt" style="verticalLabelPosition=bottom;verticalAlign=top;html=1;shape=mxgraph.basic.patternFillRect;fillStyle=diagGrid;step=5;fillStrokeWidth=0.2;fillStrokeColor=#dddddd;" parent="1" vertex="1">
                    <mxGeometry x="-680" y="3965" width="3230" height="760" as="geometry"/>
                </mxCell>
                <mxCell id="89Usu2wHVZIIO48hdldK-215" value="" style="verticalLabelPosition=bottom;verticalAlign=top;html=1;shape=mxgraph.basic.patternFillRect;fillStyle=diagGrid;step=5;fillStrokeWidth=0.2;fillStrokeColor=#dddddd;" parent="1" vertex="1">
                    <mxGeometry x="-530" y="4070" width="860" height="550" as="geometry"/>
                </mxCell>
                <mxCell id="89Usu2wHVZIIO48hdldK-216" value="" style="verticalLabelPosition=bottom;verticalAlign=top;html=1;shape=mxgraph.basic.patternFillRect;fillStyle=diagGrid;step=5;fillStrokeWidth=0.2;fillStrokeColor=#dddddd;" parent="1" vertex="1">
                    <mxGeometry x="540" y="4070" width="830" height="550" as="geometry"/>
                </mxCell>
                <mxCell id="89Usu2wHVZIIO48hdldK-217" value="" style="verticalLabelPosition=bottom;verticalAlign=top;html=1;shape=mxgraph.basic.patternFillRect;fillStyle=diagGrid;step=5;fillStrokeWidth=0.2;fillStrokeColor=#dddddd;" parent="1" vertex="1">
                    <mxGeometry x="1610" y="4075" width="860" height="550" as="geometry"/>
                </mxCell>
                <mxCell id="89Usu2wHVZIIO48hdldK-219" value="&lt;span style=&quot;font-size: 18px;&quot;&gt;User:&lt;/span&gt;" style="text;html=1;strokeColor=none;fillColor=none;align=left;verticalAlign=middle;whiteSpace=wrap;rounded=0;" parent="1" vertex="1">
                    <mxGeometry x="-490" y="4225" width="177.5" height="30" as="geometry"/>
                </mxCell>
                <mxCell id="89Usu2wHVZIIO48hdldK-220" value="&lt;span style=&quot;font-size: 18px;&quot;&gt;ID:&lt;/span&gt;" style="text;html=1;strokeColor=none;fillColor=none;align=left;verticalAlign=middle;whiteSpace=wrap;rounded=0;" parent="1" vertex="1">
                    <mxGeometry x="-490" y="4170" width="177.5" height="30" as="geometry"/>
                </mxCell>
                <mxCell id="89Usu2wHVZIIO48hdldK-221" value="&lt;span style=&quot;font-size: 18px;&quot;&gt;Phone:&lt;/span&gt;" style="text;html=1;strokeColor=none;fillColor=none;align=left;verticalAlign=middle;whiteSpace=wrap;rounded=0;" parent="1" vertex="1">
                    <mxGeometry x="-490" y="4270" width="177.5" height="30" as="geometry"/>
                </mxCell>
                <mxCell id="89Usu2wHVZIIO48hdldK-222" value="&lt;span style=&quot;font-size: 18px;&quot;&gt;Account Type:&lt;/span&gt;" style="text;html=1;strokeColor=none;fillColor=none;align=left;verticalAlign=middle;whiteSpace=wrap;rounded=0;" parent="1" vertex="1">
                    <mxGeometry x="-490" y="4310" width="177.5" height="30" as="geometry"/>
                </mxCell>
                <mxCell id="89Usu2wHVZIIO48hdldK-223" value="&lt;span style=&quot;font-size: 18px;&quot;&gt;Main Branch:&lt;/span&gt;" style="text;html=1;strokeColor=none;fillColor=none;align=left;verticalAlign=middle;whiteSpace=wrap;rounded=0;" parent="1" vertex="1">
                    <mxGeometry x="-490" y="4350" width="200" height="30" as="geometry"/>
                </mxCell>
                <mxCell id="89Usu2wHVZIIO48hdldK-224" value="" style="verticalLabelPosition=bottom;verticalAlign=top;html=1;shape=mxgraph.basic.patternFillRect;fillStyle=diagGrid;step=5;fillStrokeWidth=0.2;fillStrokeColor=#dddddd;" parent="1" vertex="1">
                    <mxGeometry x="-490" y="4416" width="420" height="180" as="geometry"/>
                </mxCell>
                <mxCell id="89Usu2wHVZIIO48hdldK-226" value="" style="verticalLabelPosition=bottom;verticalAlign=top;html=1;shape=mxgraph.basic.patternFillRect;fillStyle=diagGrid;step=5;fillStrokeWidth=0.2;fillStrokeColor=#dddddd;" parent="1" vertex="1">
                    <mxGeometry x="-30" y="4170" width="307.5" height="330" as="geometry"/>
                </mxCell>
                <mxCell id="89Usu2wHVZIIO48hdldK-228" value="" style="verticalLabelPosition=bottom;verticalAlign=top;html=1;shape=mxgraph.basic.x" parent="1" vertex="1">
                    <mxGeometry x="57.5" y="4232.5" width="140" height="185" as="geometry"/>
                </mxCell>
                <mxCell id="89Usu2wHVZIIO48hdldK-230" value="RETURN ITEM" style="rounded=1;whiteSpace=wrap;html=1;" parent="1" vertex="1">
                    <mxGeometry x="-25" y="4538" width="130" height="40" as="geometry"/>
                </mxCell>
                <mxCell id="89Usu2wHVZIIO48hdldK-232" value="Customer Accounts" style="rounded=1;whiteSpace=wrap;html=1;" parent="1" vertex="1">
                    <mxGeometry x="-187" y="4000" width="127" height="40" as="geometry"/>
                </mxCell>
                <mxCell id="89Usu2wHVZIIO48hdldK-234" value="Books" style="rounded=1;whiteSpace=wrap;html=1;" parent="1" vertex="1">
                    <mxGeometry x="910" y="4000" width="127" height="40" as="geometry"/>
                </mxCell>
                <mxCell id="89Usu2wHVZIIO48hdldK-235" value="Movies" style="rounded=1;whiteSpace=wrap;html=1;" parent="1" vertex="1">
                    <mxGeometry x="1990" y="4000" width="127" height="40" as="geometry"/>
                </mxCell>
                <mxCell id="89Usu2wHVZIIO48hdldK-236" value="User Items" style="swimlane;fontStyle=1;align=center;verticalAlign=top;childLayout=stackLayout;horizontal=1;startSize=26;horizontalStack=0;resizeParent=1;resizeParentMax=0;resizeLast=0;collapsible=1;marginBottom=0;whiteSpace=wrap;html=1;" parent="1" vertex="1">
                    <mxGeometry x="-490" y="4417.5" width="420" height="160" as="geometry"/>
                </mxCell>
                <mxCell id="89Usu2wHVZIIO48hdldK-238" value="" style="line;strokeWidth=1;fillColor=none;align=left;verticalAlign=middle;spacingTop=-1;spacingLeft=3;spacingRight=3;rotatable=0;labelPosition=right;points=[];portConstraint=eastwest;strokeColor=inherit;" parent="89Usu2wHVZIIO48hdldK-236" vertex="1">
                    <mxGeometry y="26" width="420" height="4" as="geometry"/>
                </mxCell>
                <mxCell id="89Usu2wHVZIIO48hdldK-239" value="User(ID) / ITEM_ID/Title ....&lt;span style=&quot;white-space: pre;&quot;&gt; &lt;/span&gt;&lt;span style=&quot;white-space: pre;&quot;&gt; &lt;/span&gt;&lt;span style=&quot;white-space: pre;&quot;&gt; &lt;/span&gt;&lt;span style=&quot;white-space: pre;&quot;&gt; &lt;/span&gt;&lt;span style=&quot;white-space: pre;&quot;&gt; &lt;/span&gt;&lt;span style=&quot;white-space: pre;&quot;&gt; &lt;/span&gt;&lt;span style=&quot;white-space: pre;&quot;&gt; &lt;/span&gt; $Total Owed" style="text;strokeColor=none;fillColor=none;align=left;verticalAlign=top;spacingLeft=4;spacingRight=4;overflow=hidden;rotatable=0;points=[[0,0.5],[1,0.5]];portConstraint=eastwest;whiteSpace=wrap;html=1;" parent="89Usu2wHVZIIO48hdldK-236" vertex="1">
                    <mxGeometry y="30" width="420" height="26" as="geometry"/>
                </mxCell>
                <mxCell id="RJLxAXw57hvVlPgikJnt-1" value="User(ID) / ITEM_ID/Title ....&lt;span style=&quot;white-space: pre;&quot;&gt; &lt;/span&gt;&lt;span style=&quot;white-space: pre;&quot;&gt; &lt;/span&gt;&lt;span style=&quot;white-space: pre;&quot;&gt; &lt;/span&gt;&lt;span style=&quot;white-space: pre;&quot;&gt; &lt;/span&gt;&lt;span style=&quot;white-space: pre;&quot;&gt; &lt;/span&gt;&lt;span style=&quot;white-space: pre;&quot;&gt; &lt;/span&gt;&lt;span style=&quot;white-space: pre;&quot;&gt; &lt;/span&gt; $Total Owed" style="text;strokeColor=none;fillColor=none;align=left;verticalAlign=top;spacingLeft=4;spacingRight=4;overflow=hidden;rotatable=0;points=[[0,0.5],[1,0.5]];portConstraint=eastwest;whiteSpace=wrap;html=1;" parent="89Usu2wHVZIIO48hdldK-236" vertex="1">
                    <mxGeometry y="56" width="420" height="26" as="geometry"/>
                </mxCell>
                <mxCell id="RJLxAXw57hvVlPgikJnt-2" value="User(ID) / ITEM_ID/Title ....&lt;span style=&quot;white-space: pre;&quot;&gt; &lt;/span&gt;&lt;span style=&quot;white-space: pre;&quot;&gt; &lt;/span&gt;&lt;span style=&quot;white-space: pre;&quot;&gt; &lt;/span&gt;&lt;span style=&quot;white-space: pre;&quot;&gt; &lt;/span&gt;&lt;span style=&quot;white-space: pre;&quot;&gt; &lt;/span&gt;&lt;span style=&quot;white-space: pre;&quot;&gt; &lt;/span&gt;&lt;span style=&quot;white-space: pre;&quot;&gt; &lt;/span&gt; $Total Owed" style="text;strokeColor=none;fillColor=none;align=left;verticalAlign=top;spacingLeft=4;spacingRight=4;overflow=hidden;rotatable=0;points=[[0,0.5],[1,0.5]];portConstraint=eastwest;whiteSpace=wrap;html=1;" parent="89Usu2wHVZIIO48hdldK-236" vertex="1">
                    <mxGeometry y="82" width="420" height="26" as="geometry"/>
                </mxCell>
                <mxCell id="RJLxAXw57hvVlPgikJnt-3" value="User(ID) / ITEM_ID/Title ....&lt;span style=&quot;white-space: pre;&quot;&gt; &lt;/span&gt;&lt;span style=&quot;white-space: pre;&quot;&gt; &lt;/span&gt;&lt;span style=&quot;white-space: pre;&quot;&gt; &lt;/span&gt;&lt;span style=&quot;white-space: pre;&quot;&gt; &lt;/span&gt;&lt;span style=&quot;white-space: pre;&quot;&gt; &lt;/span&gt;&lt;span style=&quot;white-space: pre;&quot;&gt; &lt;/span&gt;&lt;span style=&quot;white-space: pre;&quot;&gt; &lt;/span&gt; $Total Owed" style="text;strokeColor=none;fillColor=none;align=left;verticalAlign=top;spacingLeft=4;spacingRight=4;overflow=hidden;rotatable=0;points=[[0,0.5],[1,0.5]];portConstraint=eastwest;whiteSpace=wrap;html=1;" parent="89Usu2wHVZIIO48hdldK-236" vertex="1">
                    <mxGeometry y="108" width="420" height="26" as="geometry"/>
                </mxCell>
                <mxCell id="RJLxAXw57hvVlPgikJnt-4" value="User(ID) / ITEM_ID/Title ....&lt;span style=&quot;white-space: pre;&quot;&gt; &lt;/span&gt;&lt;span style=&quot;white-space: pre;&quot;&gt; &lt;/span&gt;&lt;span style=&quot;white-space: pre;&quot;&gt; &lt;/span&gt;&lt;span style=&quot;white-space: pre;&quot;&gt; &lt;/span&gt;&lt;span style=&quot;white-space: pre;&quot;&gt; &lt;/span&gt;&lt;span style=&quot;white-space: pre;&quot;&gt; &lt;/span&gt;&lt;span style=&quot;white-space: pre;&quot;&gt; &lt;/span&gt; $Total Owed" style="text;strokeColor=none;fillColor=none;align=left;verticalAlign=top;spacingLeft=4;spacingRight=4;overflow=hidden;rotatable=0;points=[[0,0.5],[1,0.5]];portConstraint=eastwest;whiteSpace=wrap;html=1;" parent="89Usu2wHVZIIO48hdldK-236" vertex="1">
                    <mxGeometry y="134" width="420" height="26" as="geometry"/>
                </mxCell>
                <mxCell id="89Usu2wHVZIIO48hdldK-244" style="edgeStyle=orthogonalEdgeStyle;rounded=0;orthogonalLoop=1;jettySize=auto;html=1;exitX=0.5;exitY=1;exitDx=0;exitDy=0;" parent="1" edge="1">
                    <mxGeometry relative="1" as="geometry">
                        <mxPoint x="-280.00000000000045" y="4130" as="sourcePoint"/>
                        <mxPoint x="-279.99999999999955" y="4130" as="targetPoint"/>
                    </mxGeometry>
                </mxCell>
                <mxCell id="89Usu2wHVZIIO48hdldK-247" value="Search Results" style="swimlane;fontStyle=1;align=center;verticalAlign=top;childLayout=stackLayout;horizontal=1;startSize=26;horizontalStack=0;resizeParent=1;resizeParentMax=0;resizeLast=0;collapsible=1;marginBottom=0;whiteSpace=wrap;html=1;" parent="1" vertex="1">
                    <mxGeometry x="560" y="4400" width="360" height="212" as="geometry"/>
                </mxCell>
                <mxCell id="89Usu2wHVZIIO48hdldK-248" value="" style="line;strokeWidth=1;fillColor=none;align=left;verticalAlign=middle;spacingTop=-1;spacingLeft=3;spacingRight=3;rotatable=0;labelPosition=right;points=[];portConstraint=eastwest;strokeColor=inherit;" parent="89Usu2wHVZIIO48hdldK-247" vertex="1">
                    <mxGeometry y="26" width="360" height="4" as="geometry"/>
                </mxCell>
                <mxCell id="89Usu2wHVZIIO48hdldK-249" value="ITEM_ID: TITLE" style="text;strokeColor=none;fillColor=none;align=left;verticalAlign=top;spacingLeft=4;spacingRight=4;overflow=hidden;rotatable=0;points=[[0,0.5],[1,0.5]];portConstraint=eastwest;whiteSpace=wrap;html=1;" parent="89Usu2wHVZIIO48hdldK-247" vertex="1">
                    <mxGeometry y="30" width="360" height="26" as="geometry"/>
                </mxCell>
                <mxCell id="89Usu2wHVZIIO48hdldK-250" value="ITEM_ID: TITLE" style="text;strokeColor=none;fillColor=none;align=left;verticalAlign=top;spacingLeft=4;spacingRight=4;overflow=hidden;rotatable=0;points=[[0,0.5],[1,0.5]];portConstraint=eastwest;whiteSpace=wrap;html=1;" parent="89Usu2wHVZIIO48hdldK-247" vertex="1">
                    <mxGeometry y="56" width="360" height="26" as="geometry"/>
                </mxCell>
                <mxCell id="89Usu2wHVZIIO48hdldK-251" value="ITEM_ID: TITLE" style="text;strokeColor=none;fillColor=none;align=left;verticalAlign=top;spacingLeft=4;spacingRight=4;overflow=hidden;rotatable=0;points=[[0,0.5],[1,0.5]];portConstraint=eastwest;whiteSpace=wrap;html=1;" parent="89Usu2wHVZIIO48hdldK-247" vertex="1">
                    <mxGeometry y="82" width="360" height="26" as="geometry"/>
                </mxCell>
                <mxCell id="89Usu2wHVZIIO48hdldK-252" value="ITEM_ID: TITLE" style="text;strokeColor=none;fillColor=none;align=left;verticalAlign=top;spacingLeft=4;spacingRight=4;overflow=hidden;rotatable=0;points=[[0,0.5],[1,0.5]];portConstraint=eastwest;whiteSpace=wrap;html=1;" parent="89Usu2wHVZIIO48hdldK-247" vertex="1">
                    <mxGeometry y="108" width="360" height="26" as="geometry"/>
                </mxCell>
                <mxCell id="89Usu2wHVZIIO48hdldK-253" value="ITEM_ID: TITLE" style="text;strokeColor=none;fillColor=none;align=left;verticalAlign=top;spacingLeft=4;spacingRight=4;overflow=hidden;rotatable=0;points=[[0,0.5],[1,0.5]];portConstraint=eastwest;whiteSpace=wrap;html=1;" parent="89Usu2wHVZIIO48hdldK-247" vertex="1">
                    <mxGeometry y="134" width="360" height="26" as="geometry"/>
                </mxCell>
                <mxCell id="89Usu2wHVZIIO48hdldK-297" value="ITEM_ID: TITLE" style="text;strokeColor=none;fillColor=none;align=left;verticalAlign=top;spacingLeft=4;spacingRight=4;overflow=hidden;rotatable=0;points=[[0,0.5],[1,0.5]];portConstraint=eastwest;whiteSpace=wrap;html=1;" parent="89Usu2wHVZIIO48hdldK-247" vertex="1">
                    <mxGeometry y="160" width="360" height="26" as="geometry"/>
                </mxCell>
                <mxCell id="89Usu2wHVZIIO48hdldK-298" value="ITEM_ID: TITLE" style="text;strokeColor=none;fillColor=none;align=left;verticalAlign=top;spacingLeft=4;spacingRight=4;overflow=hidden;rotatable=0;points=[[0,0.5],[1,0.5]];portConstraint=eastwest;whiteSpace=wrap;html=1;" parent="89Usu2wHVZIIO48hdldK-247" vertex="1">
                    <mxGeometry y="186" width="360" height="26" as="geometry"/>
                </mxCell>
                <mxCell id="89Usu2wHVZIIO48hdldK-254" value="&lt;span style=&quot;font-size: 18px;&quot;&gt;Title:&lt;/span&gt;" style="text;html=1;strokeColor=none;fillColor=none;align=left;verticalAlign=middle;whiteSpace=wrap;rounded=0;" parent="1" vertex="1">
                    <mxGeometry x="580" y="4190" width="177.5" height="30" as="geometry"/>
                </mxCell>
                <mxCell id="89Usu2wHVZIIO48hdldK-256" value="&lt;span style=&quot;font-size: 18px;&quot;&gt;Author(s):&lt;/span&gt;" style="text;html=1;strokeColor=none;fillColor=none;align=left;verticalAlign=middle;whiteSpace=wrap;rounded=0;" parent="1" vertex="1">
                    <mxGeometry x="580" y="4230" width="177.5" height="30" as="geometry"/>
                </mxCell>
                <mxCell id="89Usu2wHVZIIO48hdldK-257" value="&lt;span style=&quot;font-size: 18px;&quot;&gt;Genre:&lt;/span&gt;" style="text;html=1;strokeColor=none;fillColor=none;align=left;verticalAlign=middle;whiteSpace=wrap;rounded=0;" parent="1" vertex="1">
                    <mxGeometry x="580" y="4270" width="177.5" height="30" as="geometry"/>
                </mxCell>
                <mxCell id="89Usu2wHVZIIO48hdldK-258" value="&lt;span style=&quot;font-size: 18px;&quot;&gt;ISBN:&lt;/span&gt;" style="text;html=1;strokeColor=none;fillColor=none;align=left;verticalAlign=middle;whiteSpace=wrap;rounded=0;" parent="1" vertex="1">
                    <mxGeometry x="580" y="4310" width="177.5" height="30" as="geometry"/>
                </mxCell>
                <mxCell id="89Usu2wHVZIIO48hdldK-259" value="" style="verticalLabelPosition=bottom;verticalAlign=top;html=1;shape=mxgraph.basic.patternFillRect;fillStyle=diagGrid;step=5;fillStrokeWidth=0.2;fillStrokeColor=#dddddd;" parent="1" vertex="1">
                    <mxGeometry x="960" y="4100" width="180" height="210" as="geometry"/>
                </mxCell>
                <mxCell id="89Usu2wHVZIIO48hdldK-260" value="" style="verticalLabelPosition=bottom;verticalAlign=top;html=1;shape=mxgraph.basic.x" parent="1" vertex="1">
                    <mxGeometry x="1000" y="4140" width="90" height="130" as="geometry"/>
                </mxCell>
                <mxCell id="89Usu2wHVZIIO48hdldK-261" value="&lt;span style=&quot;font-size: 18px;&quot;&gt;TITLE:&lt;/span&gt;" style="text;html=1;strokeColor=none;fillColor=none;align=left;verticalAlign=middle;whiteSpace=wrap;rounded=0;" parent="1" vertex="1">
                    <mxGeometry x="962.5" y="4340" width="177.5" height="30" as="geometry"/>
                </mxCell>
                <mxCell id="89Usu2wHVZIIO48hdldK-262" value="&lt;span style=&quot;font-size: 18px;&quot;&gt;AUTHOR(S):&lt;/span&gt;" style="text;html=1;strokeColor=none;fillColor=none;align=left;verticalAlign=middle;whiteSpace=wrap;rounded=0;" parent="1" vertex="1">
                    <mxGeometry x="962.5" y="4390" width="177.5" height="30" as="geometry"/>
                </mxCell>
                <mxCell id="89Usu2wHVZIIO48hdldK-263" value="&lt;span style=&quot;font-size: 18px;&quot;&gt;PAGE(S)&lt;/span&gt;" style="text;html=1;strokeColor=none;fillColor=none;align=left;verticalAlign=middle;whiteSpace=wrap;rounded=0;" parent="1" vertex="1">
                    <mxGeometry x="962.5" y="4444" width="177.5" height="30" as="geometry"/>
                </mxCell>
                <mxCell id="89Usu2wHVZIIO48hdldK-266" value="&lt;span style=&quot;font-size: 18px;&quot;&gt;Branch:&lt;/span&gt;" style="text;html=1;strokeColor=none;fillColor=none;align=left;verticalAlign=middle;whiteSpace=wrap;rounded=0;" parent="1" vertex="1">
                    <mxGeometry x="1160" y="4105" width="177.5" height="30" as="geometry"/>
                </mxCell>
                <mxCell id="89Usu2wHVZIIO48hdldK-267" value="&lt;span style=&quot;font-size: 18px;&quot;&gt;ISBN:&lt;/span&gt;" style="text;html=1;strokeColor=none;fillColor=none;align=left;verticalAlign=middle;whiteSpace=wrap;rounded=0;" parent="1" vertex="1">
                    <mxGeometry x="1160" y="4150" width="177.5" height="30" as="geometry"/>
                </mxCell>
                <mxCell id="89Usu2wHVZIIO48hdldK-268" value="&lt;span style=&quot;font-size: 18px;&quot;&gt;Status:&lt;/span&gt;" style="text;html=1;strokeColor=none;fillColor=none;align=left;verticalAlign=middle;whiteSpace=wrap;rounded=0;" parent="1" vertex="1">
                    <mxGeometry x="1160" y="4197.5" width="177.5" height="30" as="geometry"/>
                </mxCell>
                <mxCell id="89Usu2wHVZIIO48hdldK-275" value="&lt;span style=&quot;font-size: 18px;&quot;&gt;Branch:&lt;/span&gt;" style="text;html=1;strokeColor=none;fillColor=none;align=left;verticalAlign=middle;whiteSpace=wrap;rounded=0;" parent="1" vertex="1">
                    <mxGeometry x="580" y="4350" width="177.5" height="30" as="geometry"/>
                </mxCell>
                <mxCell id="89Usu2wHVZIIO48hdldK-277" value="" style="verticalLabelPosition=bottom;verticalAlign=top;html=1;shape=mxgraph.basic.rect;fillColor2=none;strokeWidth=1;size=20;indent=5;" parent="1" vertex="1">
                    <mxGeometry x="680" y="4190" width="200" height="25" as="geometry"/>
                </mxCell>
                <mxCell id="89Usu2wHVZIIO48hdldK-278" value="" style="verticalLabelPosition=bottom;verticalAlign=top;html=1;shape=mxgraph.basic.rect;fillColor2=none;strokeWidth=1;size=20;indent=5;" parent="1" vertex="1">
                    <mxGeometry x="680" y="4230" width="200" height="25" as="geometry"/>
                </mxCell>
                <mxCell id="89Usu2wHVZIIO48hdldK-279" value="" style="verticalLabelPosition=bottom;verticalAlign=top;html=1;shape=mxgraph.basic.rect;fillColor2=none;strokeWidth=1;size=20;indent=5;" parent="1" vertex="1">
                    <mxGeometry x="680" y="4270" width="200" height="25" as="geometry"/>
                </mxCell>
                <mxCell id="89Usu2wHVZIIO48hdldK-280" value="" style="verticalLabelPosition=bottom;verticalAlign=top;html=1;shape=mxgraph.basic.rect;fillColor2=none;strokeWidth=1;size=20;indent=5;" parent="1" vertex="1">
                    <mxGeometry x="680" y="4315" width="200" height="25" as="geometry"/>
                </mxCell>
                <mxCell id="89Usu2wHVZIIO48hdldK-281" value="" style="verticalLabelPosition=bottom;verticalAlign=top;html=1;shape=mxgraph.basic.rect;fillColor2=none;strokeWidth=1;size=20;indent=5;" parent="1" vertex="1">
                    <mxGeometry x="680" y="4355" width="200" height="25" as="geometry"/>
                </mxCell>
                <mxCell id="89Usu2wHVZIIO48hdldK-282" value="Location" style="swimlane;fontStyle=0;childLayout=stackLayout;horizontal=1;startSize=26;fillColor=none;horizontalStack=0;resizeParent=1;resizeParentMax=0;resizeLast=0;collapsible=1;marginBottom=0;whiteSpace=wrap;html=1;" parent="1" vertex="1">
                    <mxGeometry x="120" y="3350" width="140" height="156" as="geometry"/>
                </mxCell>
                <mxCell id="89Usu2wHVZIIO48hdldK-283" value="+ branch_id: int PK" style="text;strokeColor=none;fillColor=none;align=left;verticalAlign=top;spacingLeft=4;spacingRight=4;overflow=hidden;rotatable=0;points=[[0,0.5],[1,0.5]];portConstraint=eastwest;whiteSpace=wrap;html=1;" parent="89Usu2wHVZIIO48hdldK-282" vertex="1">
                    <mxGeometry y="26" width="140" height="26" as="geometry"/>
                </mxCell>
                <mxCell id="89Usu2wHVZIIO48hdldK-284" value="+ isbn-13: int FK" style="text;strokeColor=none;fillColor=none;align=left;verticalAlign=top;spacingLeft=4;spacingRight=4;overflow=hidden;rotatable=0;points=[[0,0.5],[1,0.5]];portConstraint=eastwest;whiteSpace=wrap;html=1;" parent="89Usu2wHVZIIO48hdldK-282" vertex="1">
                    <mxGeometry y="52" width="140" height="26" as="geometry"/>
                </mxCell>
                <mxCell id="89Usu2wHVZIIO48hdldK-285" value="+ customer_id: int FK" style="text;strokeColor=none;fillColor=none;align=left;verticalAlign=top;spacingLeft=4;spacingRight=4;overflow=hidden;rotatable=0;points=[[0,0.5],[1,0.5]];portConstraint=eastwest;whiteSpace=wrap;html=1;" parent="89Usu2wHVZIIO48hdldK-282" vertex="1">
                    <mxGeometry y="78" width="140" height="26" as="geometry"/>
                </mxCell>
                <mxCell id="89Usu2wHVZIIO48hdldK-286" value="+ address: varchar" style="text;strokeColor=none;fillColor=none;align=left;verticalAlign=top;spacingLeft=4;spacingRight=4;overflow=hidden;rotatable=0;points=[[0,0.5],[1,0.5]];portConstraint=eastwest;whiteSpace=wrap;html=1;" parent="89Usu2wHVZIIO48hdldK-282" vertex="1">
                    <mxGeometry y="104" width="140" height="26" as="geometry"/>
                </mxCell>
                <mxCell id="89Usu2wHVZIIO48hdldK-287" value="+ phone: int" style="text;strokeColor=none;fillColor=none;align=left;verticalAlign=top;spacingLeft=4;spacingRight=4;overflow=hidden;rotatable=0;points=[[0,0.5],[1,0.5]];portConstraint=eastwest;whiteSpace=wrap;html=1;" parent="89Usu2wHVZIIO48hdldK-282" vertex="1">
                    <mxGeometry y="130" width="140" height="26" as="geometry"/>
                </mxCell>
                <mxCell id="89Usu2wHVZIIO48hdldK-288" value="Item" style="swimlane;fontStyle=0;childLayout=stackLayout;horizontal=1;startSize=26;fillColor=none;horizontalStack=0;resizeParent=1;resizeParentMax=0;resizeLast=0;collapsible=1;marginBottom=0;whiteSpace=wrap;html=1;" parent="1" vertex="1">
                    <mxGeometry x="-87" y="3350" width="170" height="234" as="geometry"/>
                </mxCell>
                <mxCell id="89Usu2wHVZIIO48hdldK-289" value="+ item_id: int PK" style="text;strokeColor=none;fillColor=none;align=left;verticalAlign=top;spacingLeft=4;spacingRight=4;overflow=hidden;rotatable=0;points=[[0,0.5],[1,0.5]];portConstraint=eastwest;whiteSpace=wrap;html=1;" parent="89Usu2wHVZIIO48hdldK-288" vertex="1">
                    <mxGeometry y="26" width="170" height="26" as="geometry"/>
                </mxCell>
                <mxCell id="89Usu2wHVZIIO48hdldK-290" value="+ type: varchar FK" style="text;strokeColor=none;fillColor=none;align=left;verticalAlign=top;spacingLeft=4;spacingRight=4;overflow=hidden;rotatable=0;points=[[0,0.5],[1,0.5]];portConstraint=eastwest;whiteSpace=wrap;html=1;" parent="89Usu2wHVZIIO48hdldK-288" vertex="1">
                    <mxGeometry y="52" width="170" height="26" as="geometry"/>
                </mxCell>
                <mxCell id="89Usu2wHVZIIO48hdldK-291" value="+ branch_id: int FK" style="text;strokeColor=none;fillColor=none;align=left;verticalAlign=top;spacingLeft=4;spacingRight=4;overflow=hidden;rotatable=0;points=[[0,0.5],[1,0.5]];portConstraint=eastwest;whiteSpace=wrap;html=1;" parent="89Usu2wHVZIIO48hdldK-288" vertex="1">
                    <mxGeometry y="78" width="170" height="26" as="geometry"/>
                </mxCell>
                <mxCell id="89Usu2wHVZIIO48hdldK-292" value="+ customer_id: int null FK" style="text;strokeColor=none;fillColor=none;align=left;verticalAlign=top;spacingLeft=4;spacingRight=4;overflow=hidden;rotatable=0;points=[[0,0.5],[1,0.5]];portConstraint=eastwest;whiteSpace=wrap;html=1;" parent="89Usu2wHVZIIO48hdldK-288" vertex="1">
                    <mxGeometry y="104" width="170" height="26" as="geometry"/>
                </mxCell>
                <mxCell id="89Usu2wHVZIIO48hdldK-293" value="+ shelf_location: varchar" style="text;strokeColor=none;fillColor=none;align=left;verticalAlign=top;spacingLeft=4;spacingRight=4;overflow=hidden;rotatable=0;points=[[0,0.5],[1,0.5]];portConstraint=eastwest;whiteSpace=wrap;html=1;" parent="89Usu2wHVZIIO48hdldK-288" vertex="1">
                    <mxGeometry y="130" width="170" height="26" as="geometry"/>
                </mxCell>
                <mxCell id="89Usu2wHVZIIO48hdldK-294" value="+ status: varchar" style="text;strokeColor=none;fillColor=none;align=left;verticalAlign=top;spacingLeft=4;spacingRight=4;overflow=hidden;rotatable=0;points=[[0,0.5],[1,0.5]];portConstraint=eastwest;whiteSpace=wrap;html=1;" parent="89Usu2wHVZIIO48hdldK-288" vertex="1">
                    <mxGeometry y="156" width="170" height="26" as="geometry"/>
                </mxCell>
                <mxCell id="89Usu2wHVZIIO48hdldK-295" value="&lt;div&gt;+ title: var_char&lt;br&gt;&lt;/div&gt;" style="text;strokeColor=none;fillColor=none;align=left;verticalAlign=top;spacingLeft=4;spacingRight=4;overflow=hidden;rotatable=0;points=[[0,0.5],[1,0.5]];portConstraint=eastwest;whiteSpace=wrap;html=1;" parent="89Usu2wHVZIIO48hdldK-288" vertex="1">
                    <mxGeometry y="182" width="170" height="26" as="geometry"/>
                </mxCell>
                <mxCell id="89Usu2wHVZIIO48hdldK-296" value="+ genre: varchar" style="text;strokeColor=none;fillColor=none;align=left;verticalAlign=top;spacingLeft=4;spacingRight=4;overflow=hidden;rotatable=0;points=[[0,0.5],[1,0.5]];portConstraint=eastwest;whiteSpace=wrap;html=1;" parent="89Usu2wHVZIIO48hdldK-288" vertex="1">
                    <mxGeometry y="208" width="170" height="26" as="geometry"/>
                </mxCell>
                <mxCell id="89Usu2wHVZIIO48hdldK-299" value="&lt;span style=&quot;font-size: 18px;&quot;&gt;Title:&lt;/span&gt;" style="text;html=1;strokeColor=none;fillColor=none;align=left;verticalAlign=middle;whiteSpace=wrap;rounded=0;" parent="1" vertex="1">
                    <mxGeometry x="1660" y="4165" width="177.5" height="30" as="geometry"/>
                </mxCell>
                <mxCell id="89Usu2wHVZIIO48hdldK-300" value="" style="verticalLabelPosition=bottom;verticalAlign=top;html=1;shape=mxgraph.basic.rect;fillColor2=none;strokeWidth=1;size=20;indent=5;" parent="1" vertex="1">
                    <mxGeometry x="1750" y="4165" width="200" height="25" as="geometry"/>
                </mxCell>
                <mxCell id="89Usu2wHVZIIO48hdldK-301" value="SEARCH" style="rounded=1;whiteSpace=wrap;html=1;" parent="1" vertex="1">
                    <mxGeometry x="1730" y="4100" width="220" height="40" as="geometry"/>
                </mxCell>
                <mxCell id="89Usu2wHVZIIO48hdldK-302" value="&lt;span style=&quot;font-size: 18px;&quot;&gt;ISAN:&lt;/span&gt;" style="text;html=1;strokeColor=none;fillColor=none;align=left;verticalAlign=middle;whiteSpace=wrap;rounded=0;" parent="1" vertex="1">
                    <mxGeometry x="1660" y="4242.5" width="177.5" height="30" as="geometry"/>
                </mxCell>
                <mxCell id="89Usu2wHVZIIO48hdldK-303" value="" style="verticalLabelPosition=bottom;verticalAlign=top;html=1;shape=mxgraph.basic.rect;fillColor2=none;strokeWidth=1;size=20;indent=5;movable=1;resizable=1;rotatable=1;deletable=1;editable=1;locked=0;connectable=1;" parent="1" vertex="1">
                    <mxGeometry x="1750" y="4247.5" width="200" height="25" as="geometry"/>
                </mxCell>
                <mxCell id="89Usu2wHVZIIO48hdldK-304" value="&lt;span style=&quot;font-size: 18px;&quot;&gt;Runtime:&lt;/span&gt;" style="text;html=1;strokeColor=none;fillColor=none;align=left;verticalAlign=middle;whiteSpace=wrap;rounded=0;" parent="1" vertex="1">
                    <mxGeometry x="1660" y="4287.5" width="177.5" height="30" as="geometry"/>
                </mxCell>
                <mxCell id="89Usu2wHVZIIO48hdldK-305" value="" style="verticalLabelPosition=bottom;verticalAlign=top;html=1;shape=mxgraph.basic.rect;fillColor2=none;strokeWidth=1;size=20;indent=5;" parent="1" vertex="1">
                    <mxGeometry x="1750" y="4290" width="200" height="25" as="geometry"/>
                </mxCell>
                <mxCell id="89Usu2wHVZIIO48hdldK-306" value="Search Results" style="swimlane;fontStyle=1;align=center;verticalAlign=top;childLayout=stackLayout;horizontal=1;startSize=26;horizontalStack=0;resizeParent=1;resizeParentMax=0;resizeLast=0;collapsible=1;marginBottom=0;whiteSpace=wrap;html=1;" parent="1" vertex="1">
                    <mxGeometry x="1670" y="4340" width="360" height="238" as="geometry"/>
                </mxCell>
                <mxCell id="89Usu2wHVZIIO48hdldK-307" value="" style="line;strokeWidth=1;fillColor=none;align=left;verticalAlign=middle;spacingTop=-1;spacingLeft=3;spacingRight=3;rotatable=0;labelPosition=right;points=[];portConstraint=eastwest;strokeColor=inherit;" parent="89Usu2wHVZIIO48hdldK-306" vertex="1">
                    <mxGeometry y="26" width="360" height="4" as="geometry"/>
                </mxCell>
                <mxCell id="89Usu2wHVZIIO48hdldK-308" value="ITEM_ID: TITLE" style="text;strokeColor=none;fillColor=none;align=left;verticalAlign=top;spacingLeft=4;spacingRight=4;overflow=hidden;rotatable=0;points=[[0,0.5],[1,0.5]];portConstraint=eastwest;whiteSpace=wrap;html=1;" parent="89Usu2wHVZIIO48hdldK-306" vertex="1">
                    <mxGeometry y="30" width="360" height="26" as="geometry"/>
                </mxCell>
                <mxCell id="89Usu2wHVZIIO48hdldK-309" value="ITEM_ID: TITLE" style="text;strokeColor=none;fillColor=none;align=left;verticalAlign=top;spacingLeft=4;spacingRight=4;overflow=hidden;rotatable=0;points=[[0,0.5],[1,0.5]];portConstraint=eastwest;whiteSpace=wrap;html=1;" parent="89Usu2wHVZIIO48hdldK-306" vertex="1">
                    <mxGeometry y="56" width="360" height="26" as="geometry"/>
                </mxCell>
                <mxCell id="89Usu2wHVZIIO48hdldK-310" value="ITEM_ID: TITLE" style="text;strokeColor=none;fillColor=none;align=left;verticalAlign=top;spacingLeft=4;spacingRight=4;overflow=hidden;rotatable=0;points=[[0,0.5],[1,0.5]];portConstraint=eastwest;whiteSpace=wrap;html=1;" parent="89Usu2wHVZIIO48hdldK-306" vertex="1">
                    <mxGeometry y="82" width="360" height="26" as="geometry"/>
                </mxCell>
                <mxCell id="89Usu2wHVZIIO48hdldK-311" value="ITEM_ID: TITLE" style="text;strokeColor=none;fillColor=none;align=left;verticalAlign=top;spacingLeft=4;spacingRight=4;overflow=hidden;rotatable=0;points=[[0,0.5],[1,0.5]];portConstraint=eastwest;whiteSpace=wrap;html=1;" parent="89Usu2wHVZIIO48hdldK-306" vertex="1">
                    <mxGeometry y="108" width="360" height="26" as="geometry"/>
                </mxCell>
                <mxCell id="89Usu2wHVZIIO48hdldK-312" value="ITEM_ID: TITLE" style="text;strokeColor=none;fillColor=none;align=left;verticalAlign=top;spacingLeft=4;spacingRight=4;overflow=hidden;rotatable=0;points=[[0,0.5],[1,0.5]];portConstraint=eastwest;whiteSpace=wrap;html=1;" parent="89Usu2wHVZIIO48hdldK-306" vertex="1">
                    <mxGeometry y="134" width="360" height="26" as="geometry"/>
                </mxCell>
                <mxCell id="89Usu2wHVZIIO48hdldK-313" value="ITEM_ID: TITLE" style="text;strokeColor=none;fillColor=none;align=left;verticalAlign=top;spacingLeft=4;spacingRight=4;overflow=hidden;rotatable=0;points=[[0,0.5],[1,0.5]];portConstraint=eastwest;whiteSpace=wrap;html=1;" parent="89Usu2wHVZIIO48hdldK-306" vertex="1">
                    <mxGeometry y="160" width="360" height="26" as="geometry"/>
                </mxCell>
                <mxCell id="89Usu2wHVZIIO48hdldK-314" value="ITEM_ID: TITLE" style="text;strokeColor=none;fillColor=none;align=left;verticalAlign=top;spacingLeft=4;spacingRight=4;overflow=hidden;rotatable=0;points=[[0,0.5],[1,0.5]];portConstraint=eastwest;whiteSpace=wrap;html=1;" parent="89Usu2wHVZIIO48hdldK-306" vertex="1">
                    <mxGeometry y="186" width="360" height="26" as="geometry"/>
                </mxCell>
                <mxCell id="89Usu2wHVZIIO48hdldK-321" value="ITEM_ID: TITLE" style="text;strokeColor=none;fillColor=none;align=left;verticalAlign=top;spacingLeft=4;spacingRight=4;overflow=hidden;rotatable=0;points=[[0,0.5],[1,0.5]];portConstraint=eastwest;whiteSpace=wrap;html=1;" parent="89Usu2wHVZIIO48hdldK-306" vertex="1">
                    <mxGeometry y="212" width="360" height="26" as="geometry"/>
                </mxCell>
                <mxCell id="NA5fiZxvmsgBCW23Y8QN-1" value="DASHBOARD" style="rounded=1;whiteSpace=wrap;html=1;" parent="1" vertex="1">
                    <mxGeometry x="147.5" y="4538" width="130" height="40" as="geometry"/>
                </mxCell>
                <mxCell id="NA5fiZxvmsgBCW23Y8QN-3" value="CHECKOUT" style="rounded=1;whiteSpace=wrap;html=1;" parent="1" vertex="1">
                    <mxGeometry x="980" y="4540" width="130" height="40" as="geometry"/>
                </mxCell>
                <mxCell id="NA5fiZxvmsgBCW23Y8QN-4" value="DASHBOARD" style="rounded=1;whiteSpace=wrap;html=1;" parent="1" vertex="1">
                    <mxGeometry x="1160" y="4540" width="130" height="40" as="geometry"/>
                </mxCell>
                <mxCell id="NA5fiZxvmsgBCW23Y8QN-5" value="CHECKOUT" style="rounded=1;whiteSpace=wrap;html=1;" parent="1" vertex="1">
                    <mxGeometry x="2105" y="4546" width="130" height="40" as="geometry"/>
                </mxCell>
                <mxCell id="NA5fiZxvmsgBCW23Y8QN-6" value="DASHBOARD" style="rounded=1;whiteSpace=wrap;html=1;" parent="1" vertex="1">
                    <mxGeometry x="2280" y="4546" width="130" height="40" as="geometry"/>
                </mxCell>
                <mxCell id="RJLxAXw57hvVlPgikJnt-6" value="DROPWDOWN" style="text;strokeColor=none;fillColor=none;align=left;verticalAlign=top;spacingLeft=4;spacingRight=4;overflow=hidden;rotatable=0;points=[[0,0.5],[1,0.5]];portConstraint=eastwest;whiteSpace=wrap;html=1;" parent="1" vertex="1">
                    <mxGeometry x="680" y="4355" width="200" height="26" as="geometry"/>
                </mxCell>
                <mxCell id="RJLxAXw57hvVlPgikJnt-7" value="DROPWDOWN" style="text;strokeColor=none;fillColor=none;align=left;verticalAlign=top;spacingLeft=4;spacingRight=4;overflow=hidden;rotatable=0;points=[[0,0.5],[1,0.5]];portConstraint=eastwest;whiteSpace=wrap;html=1;" parent="1" vertex="1">
                    <mxGeometry x="680" y="4269.5" width="360" height="26" as="geometry"/>
                </mxCell>
                <mxCell id="00RsVyUktvMVKyuecYNm-1" value="&lt;span style=&quot;font-size: 18px;&quot;&gt;Genre:&lt;/span&gt;" style="text;html=1;strokeColor=none;fillColor=none;align=left;verticalAlign=middle;whiteSpace=wrap;rounded=0;" parent="1" vertex="1">
                    <mxGeometry x="1660" y="4202.5" width="177.5" height="30" as="geometry"/>
                </mxCell>
                <mxCell id="00RsVyUktvMVKyuecYNm-3" value="" style="verticalLabelPosition=bottom;verticalAlign=top;html=1;shape=mxgraph.basic.rect;fillColor2=none;strokeWidth=1;size=20;indent=5;" parent="1" vertex="1">
                    <mxGeometry x="1750" y="4205" width="200" height="25" as="geometry"/>
                </mxCell>
                <mxCell id="00RsVyUktvMVKyuecYNm-2" value="DROPWDOWN" style="text;strokeColor=none;fillColor=none;align=left;verticalAlign=top;spacingLeft=4;spacingRight=4;overflow=hidden;rotatable=0;points=[[0,0.5],[1,0.5]];portConstraint=eastwest;whiteSpace=wrap;html=1;" parent="1" vertex="1">
                    <mxGeometry x="1750" y="4205" width="360" height="26" as="geometry"/>
                </mxCell>
                <mxCell id="2" value="" style="verticalLabelPosition=bottom;verticalAlign=top;html=1;shape=mxgraph.basic.rect;fillColor2=none;strokeWidth=1;size=20;indent=5;" parent="1" vertex="1">
                    <mxGeometry x="-455" y="4172.5" width="200" height="25" as="geometry"/>
                </mxCell>
                <mxCell id="3" value="Search" style="rounded=1;whiteSpace=wrap;html=1;" parent="1" vertex="1">
                    <mxGeometry x="625" y="4100" width="210" height="40" as="geometry"/>
                </mxCell>
                <mxCell id="4" value="Search" style="rounded=1;whiteSpace=wrap;html=1;" parent="1" vertex="1">
                    <mxGeometry x="-450" y="4110" width="160" height="40" as="geometry"/>
                </mxCell>
                <mxCell id="10" value="" style="verticalLabelPosition=bottom;verticalAlign=top;html=1;shape=mxgraph.basic.patternFillRect;fillStyle=diagGrid;step=5;fillStrokeWidth=0.2;fillStrokeColor=#dddddd;" parent="1" vertex="1">
                    <mxGeometry x="-655" y="4732" width="3205" height="938" as="geometry"/>
                </mxCell>
                <mxCell id="11" value="" style="verticalLabelPosition=bottom;verticalAlign=top;html=1;shape=mxgraph.basic.patternFillRect;fillStyle=diagGrid;step=5;fillStrokeWidth=0.2;fillStrokeColor=#dddddd;" parent="1" vertex="1">
                    <mxGeometry x="-510" y="4845" width="340" height="495" as="geometry"/>
                </mxCell>
                <mxCell id="12" value="" style="verticalLabelPosition=bottom;verticalAlign=top;html=1;shape=mxgraph.basic.patternFillRect;fillStyle=diagGrid;step=5;fillStrokeWidth=0.2;fillStrokeColor=#dddddd;" parent="1" vertex="1">
                    <mxGeometry x="506.5" y="4850" width="460" height="260" as="geometry"/>
                </mxCell>
                <mxCell id="13" value="REMOVE" style="rounded=1;whiteSpace=wrap;html=1;" parent="1" vertex="1">
                    <mxGeometry x="107.75" y="4770" width="127" height="40" as="geometry"/>
                </mxCell>
                <mxCell id="14" value="ADD" style="rounded=1;whiteSpace=wrap;html=1;" parent="1" vertex="1">
                    <mxGeometry x="-403.5" y="4770" width="127" height="40" as="geometry"/>
                </mxCell>
                <mxCell id="18" value="RETURN" style="rounded=1;whiteSpace=wrap;html=1;" parent="1" vertex="1">
                    <mxGeometry x="1166.5" y="4760" width="127" height="40" as="geometry"/>
                </mxCell>
                <mxCell id="21" value="" style="verticalLabelPosition=bottom;verticalAlign=top;html=1;shape=mxgraph.basic.patternFillRect;fillStyle=diagGrid;step=5;fillStrokeWidth=0.2;fillStrokeColor=#dddddd;" parent="1" vertex="1">
                    <mxGeometry x="-67.5" y="4845" width="477.5" height="195" as="geometry"/>
                </mxCell>
                <mxCell id="24" value="&lt;span style=&quot;font-size: 18px;&quot;&gt;Title:&lt;/span&gt;" style="text;html=1;strokeColor=none;fillColor=none;align=left;verticalAlign=middle;whiteSpace=wrap;rounded=0;" parent="1" vertex="1">
                    <mxGeometry x="-480" y="4890" width="177.5" height="30" as="geometry"/>
                </mxCell>
                <mxCell id="25" value="&lt;span style=&quot;font-size: 18px;&quot;&gt;Author:&lt;/span&gt;" style="text;html=1;strokeColor=none;fillColor=none;align=left;verticalAlign=middle;whiteSpace=wrap;rounded=0;" parent="1" vertex="1">
                    <mxGeometry x="-478.75" y="4935" width="177.5" height="30" as="geometry"/>
                </mxCell>
                <mxCell id="26" value="&lt;span style=&quot;font-size: 18px;&quot;&gt;Genre:&lt;/span&gt;" style="text;html=1;strokeColor=none;fillColor=none;align=left;verticalAlign=middle;whiteSpace=wrap;rounded=0;" parent="1" vertex="1">
                    <mxGeometry x="-480" y="4980" width="177.5" height="30" as="geometry"/>
                </mxCell>
                <mxCell id="27" value="&lt;span style=&quot;font-size: 18px;&quot;&gt;ID Type:&lt;/span&gt;" style="text;html=1;strokeColor=none;fillColor=none;align=left;verticalAlign=middle;whiteSpace=wrap;rounded=0;" parent="1" vertex="1">
                    <mxGeometry x="-480" y="5022.5" width="177.5" height="30" as="geometry"/>
                </mxCell>
                <mxCell id="28" value="&lt;span style=&quot;font-size: 18px;&quot;&gt;Branch&lt;/span&gt;" style="text;html=1;strokeColor=none;fillColor=none;align=left;verticalAlign=middle;whiteSpace=wrap;rounded=0;" parent="1" vertex="1">
                    <mxGeometry x="-480" y="5070" width="177.5" height="30" as="geometry"/>
                </mxCell>
                <mxCell id="29" value="&lt;span style=&quot;font-size: 18px;&quot;&gt;Page(s)&lt;/span&gt;" style="text;html=1;strokeColor=none;fillColor=none;align=left;verticalAlign=middle;whiteSpace=wrap;rounded=0;" parent="1" vertex="1">
                    <mxGeometry x="-480" y="5110" width="177.5" height="30" as="geometry"/>
                </mxCell>
                <mxCell id="31" value="&lt;span style=&quot;font-size: 18px;&quot;&gt;Runtime&lt;/span&gt;" style="text;html=1;strokeColor=none;fillColor=none;align=left;verticalAlign=middle;whiteSpace=wrap;rounded=0;" parent="1" vertex="1">
                    <mxGeometry x="-478.75" y="5160" width="177.5" height="30" as="geometry"/>
                </mxCell>
                <mxCell id="32" value="" style="verticalLabelPosition=bottom;verticalAlign=top;html=1;shape=mxgraph.basic.rect;fillColor2=none;strokeWidth=1;size=20;indent=5;" parent="1" vertex="1">
                    <mxGeometry x="-400" y="4895" width="200" height="25" as="geometry"/>
                </mxCell>
                <mxCell id="33" value="" style="verticalLabelPosition=bottom;verticalAlign=top;html=1;shape=mxgraph.basic.rect;fillColor2=none;strokeWidth=1;size=20;indent=5;" parent="1" vertex="1">
                    <mxGeometry x="-400" y="4937.5" width="200" height="25" as="geometry"/>
                </mxCell>
                <mxCell id="34" value="" style="verticalLabelPosition=bottom;verticalAlign=top;html=1;shape=mxgraph.basic.rect;fillColor2=none;strokeWidth=1;size=20;indent=5;" parent="1" vertex="1">
                    <mxGeometry x="-400" y="4980" width="200" height="25" as="geometry"/>
                </mxCell>
                <mxCell id="35" value="&lt;div style=&quot;background-color:#1e1f22;color:#bcbec4&quot;&gt;&lt;pre style=&quot;font-family:'JetBrains Mono',monospace;font-size:9.8pt;&quot;&gt;User_label&lt;/pre&gt;&lt;/div&gt;" style="verticalLabelPosition=bottom;verticalAlign=top;html=1;shape=mxgraph.basic.rect;fillColor2=none;strokeWidth=1;size=20;indent=5;" parent="1" vertex="1">
                    <mxGeometry x="-400" y="5025" width="200" height="25" as="geometry"/>
                </mxCell>
                <mxCell id="36" value="" style="verticalLabelPosition=bottom;verticalAlign=top;html=1;shape=mxgraph.basic.rect;fillColor2=none;strokeWidth=1;size=20;indent=5;" parent="1" vertex="1">
                    <mxGeometry x="-400" y="5070" width="200" height="25" as="geometry"/>
                </mxCell>
                <mxCell id="37" value="" style="verticalLabelPosition=bottom;verticalAlign=top;html=1;shape=mxgraph.basic.rect;fillColor2=none;strokeWidth=1;size=20;indent=5;" parent="1" vertex="1">
                    <mxGeometry x="-400" y="5115" width="200" height="25" as="geometry"/>
                </mxCell>
                <mxCell id="38" value="" style="verticalLabelPosition=bottom;verticalAlign=top;html=1;shape=mxgraph.basic.rect;fillColor2=none;strokeWidth=1;size=20;indent=5;" parent="1" vertex="1">
                    <mxGeometry x="-400" y="5160" width="200" height="25" as="geometry"/>
                </mxCell>
                <mxCell id="39" value="DROPWDOWN" style="text;strokeColor=none;fillColor=none;align=left;verticalAlign=top;spacingLeft=4;spacingRight=4;overflow=hidden;rotatable=0;points=[[0,0.5],[1,0.5]];portConstraint=eastwest;whiteSpace=wrap;html=1;" parent="1" vertex="1">
                    <mxGeometry x="-400" y="5024.5" width="360" height="26" as="geometry"/>
                </mxCell>
                <mxCell id="41" value="DROPWDOWN" style="text;strokeColor=none;fillColor=none;align=left;verticalAlign=top;spacingLeft=4;spacingRight=4;overflow=hidden;rotatable=0;points=[[0,0.5],[1,0.5]];portConstraint=eastwest;whiteSpace=wrap;html=1;" parent="1" vertex="1">
                    <mxGeometry x="-403.5" y="5068" width="360" height="26" as="geometry"/>
                </mxCell>
                <mxCell id="42" value="ADD" style="rounded=1;whiteSpace=wrap;html=1;" parent="1" vertex="1">
                    <mxGeometry x="-455" y="5280" width="87" height="20" as="geometry"/>
                </mxCell>
                <mxCell id="44" value="&lt;span style=&quot;font-size: 18px;&quot;&gt;Runtime:&lt;/span&gt;" style="text;html=1;strokeColor=none;fillColor=none;align=left;verticalAlign=middle;whiteSpace=wrap;rounded=0;" parent="1" vertex="1">
                    <mxGeometry x="-480" y="5200" width="177.5" height="30" as="geometry"/>
                </mxCell>
                <mxCell id="45" value="" style="verticalLabelPosition=bottom;verticalAlign=top;html=1;shape=mxgraph.basic.rect;fillColor2=none;strokeWidth=1;size=20;indent=5;" parent="1" vertex="1">
                    <mxGeometry x="-400" y="5205" width="200" height="25" as="geometry"/>
                </mxCell>
                <mxCell id="46" value="DROPWDOWN" style="text;strokeColor=none;fillColor=none;align=left;verticalAlign=top;spacingLeft=4;spacingRight=4;overflow=hidden;rotatable=0;points=[[0,0.5],[1,0.5]];portConstraint=eastwest;whiteSpace=wrap;html=1;" parent="1" vertex="1">
                    <mxGeometry x="-400" y="5115" width="360" height="26" as="geometry"/>
                </mxCell>
                <mxCell id="53" value="CANCEL" style="rounded=1;whiteSpace=wrap;html=1;" parent="1" vertex="1">
                    <mxGeometry x="-323.5" y="5280" width="87" height="20" as="geometry"/>
                </mxCell>
                <mxCell id="54" value="&lt;span style=&quot;font-size: 18px;&quot;&gt;ITEM ID:&lt;/span&gt;" style="text;html=1;strokeColor=none;fillColor=none;align=left;verticalAlign=middle;whiteSpace=wrap;rounded=0;" parent="1" vertex="1">
                    <mxGeometry x="-40" y="4890" width="177.5" height="30" as="geometry"/>
                </mxCell>
                <mxCell id="61" value="REMOVE" style="rounded=1;whiteSpace=wrap;html=1;" parent="1" vertex="1">
                    <mxGeometry x="40" y="4962.5" width="87" height="20" as="geometry"/>
                </mxCell>
                <mxCell id="62" value="CANCEL" style="rounded=1;whiteSpace=wrap;html=1;" parent="1" vertex="1">
                    <mxGeometry x="210" y="4965" width="87" height="20" as="geometry"/>
                </mxCell>
                <mxCell id="63" value="" style="verticalLabelPosition=bottom;verticalAlign=top;html=1;shape=mxgraph.basic.rect;fillColor2=none;strokeWidth=1;size=20;indent=5;" parent="1" vertex="1">
                    <mxGeometry x="80" y="4890" width="200" height="25" as="geometry"/>
                </mxCell>
                <mxCell id="71" value="CHECKOUT" style="rounded=1;whiteSpace=wrap;html=1;" parent="1" vertex="1">
                    <mxGeometry x="673" y="4770" width="127" height="40" as="geometry"/>
                </mxCell>
                <mxCell id="74" value="&lt;div style=&quot;&quot;&gt;&lt;span style=&quot;font-size: 18px; background-color: initial;&quot;&gt;USER ID:&lt;/span&gt;&lt;/div&gt;" style="text;html=1;strokeColor=none;fillColor=none;align=center;verticalAlign=middle;whiteSpace=wrap;rounded=0;" parent="1" vertex="1">
                    <mxGeometry x="495.5" y="4957.5" width="177.5" height="30" as="geometry"/>
                </mxCell>
                <mxCell id="79" value="" style="verticalLabelPosition=bottom;verticalAlign=top;html=1;shape=mxgraph.basic.rect;fillColor2=none;strokeWidth=1;size=20;indent=5;" parent="1" vertex="1">
                    <mxGeometry x="660" y="4954.5" width="200" height="25" as="geometry"/>
                </mxCell>
                <mxCell id="93" value="CANCEL" style="rounded=1;whiteSpace=wrap;html=1;" parent="1" vertex="1">
                    <mxGeometry x="783" y="5035" width="87" height="20" as="geometry"/>
                </mxCell>
                <mxCell id="94" value="CHECKOUT" style="rounded=1;whiteSpace=wrap;html=1;" parent="1" vertex="1">
                    <mxGeometry x="620" y="5037.5" width="87" height="20" as="geometry"/>
                </mxCell>
                <mxCell id="143" value="&lt;span style=&quot;font-size: 18px;&quot;&gt;ITEM ID:&lt;/span&gt;" style="text;html=1;strokeColor=none;fillColor=none;align=left;verticalAlign=middle;whiteSpace=wrap;rounded=0;" parent="1" vertex="1">
                    <mxGeometry x="542.5" y="4900" width="177.5" height="30" as="geometry"/>
                </mxCell>
                <mxCell id="144" value="" style="verticalLabelPosition=bottom;verticalAlign=top;html=1;shape=mxgraph.basic.rect;fillColor2=none;strokeWidth=1;size=20;indent=5;" parent="1" vertex="1">
                    <mxGeometry x="660" y="4902.5" width="200" height="25" as="geometry"/>
                </mxCell>
                <mxCell id="146" value="Add Account" style="rounded=1;whiteSpace=wrap;html=1;" parent="1" vertex="1">
                    <mxGeometry x="-255" y="4110" width="160" height="40" as="geometry"/>
                </mxCell>
                <mxCell id="147" value="" style="verticalLabelPosition=bottom;verticalAlign=top;html=1;shape=mxgraph.basic.patternFillRect;fillStyle=diagGrid;step=5;fillStrokeWidth=0.2;fillStrokeColor=#dddddd;" parent="1" vertex="1">
                    <mxGeometry x="1570" y="4845" width="340" height="445" as="geometry"/>
                </mxCell>
                <mxCell id="148" value="ADD&lt;br&gt;PATRON&lt;br&gt;(Account)" style="rounded=1;whiteSpace=wrap;html=1;" parent="1" vertex="1">
                    <mxGeometry x="1676.5" y="4760" width="127" height="40" as="geometry"/>
                </mxCell>
                <mxCell id="149" value="" style="verticalLabelPosition=bottom;verticalAlign=top;html=1;shape=mxgraph.basic.rect;fillColor2=none;strokeWidth=1;size=20;indent=5;" parent="1" vertex="1">
                    <mxGeometry x="1700" y="4887.5" width="200" height="25" as="geometry"/>
                </mxCell>
                <mxCell id="150" value="&lt;span style=&quot;font-size: 18px;&quot;&gt;Patron ID:&lt;/span&gt;" style="text;html=1;strokeColor=none;fillColor=none;align=left;verticalAlign=middle;whiteSpace=wrap;rounded=0;" parent="1" vertex="1">
                    <mxGeometry x="1592.5" y="4885" width="177.5" height="30" as="geometry"/>
                </mxCell>
                <mxCell id="151" value="" style="verticalLabelPosition=bottom;verticalAlign=top;html=1;shape=mxgraph.basic.rect;fillColor2=none;strokeWidth=1;size=20;indent=5;" parent="1" vertex="1">
                    <mxGeometry x="1700" y="4940" width="200" height="25" as="geometry"/>
                </mxCell>
                <mxCell id="152" value="" style="verticalLabelPosition=bottom;verticalAlign=top;html=1;shape=mxgraph.basic.rect;fillColor2=none;strokeWidth=1;size=20;indent=12;" parent="1" vertex="1">
                    <mxGeometry x="1700" y="4992.5" width="200" height="25" as="geometry"/>
                </mxCell>
                <mxCell id="153" value="" style="verticalLabelPosition=bottom;verticalAlign=top;html=1;shape=mxgraph.basic.rect;fillColor2=none;strokeWidth=1;size=20;indent=5;" parent="1" vertex="1">
                    <mxGeometry x="1700" y="5047.5" width="200" height="25" as="geometry"/>
                </mxCell>
                <mxCell id="154" value="" style="verticalLabelPosition=bottom;verticalAlign=top;html=1;shape=mxgraph.basic.rect;fillColor2=none;strokeWidth=1;size=20;indent=5;" parent="1" vertex="1">
                    <mxGeometry x="1700" y="5100" width="200" height="25" as="geometry"/>
                </mxCell>
                <mxCell id="155" value="" style="verticalLabelPosition=bottom;verticalAlign=top;html=1;shape=mxgraph.basic.rect;fillColor2=none;strokeWidth=1;size=20;indent=5;" parent="1" vertex="1">
                    <mxGeometry x="1700" y="5160" width="200" height="25" as="geometry"/>
                </mxCell>
                <mxCell id="160" value="ADD" style="rounded=1;whiteSpace=wrap;html=1;" parent="1" vertex="1">
                    <mxGeometry x="1633" y="5237.5" width="87" height="20" as="geometry"/>
                </mxCell>
                <mxCell id="161" value="CANCEL" style="rounded=1;whiteSpace=wrap;html=1;" parent="1" vertex="1">
                    <mxGeometry x="1780" y="5237.5" width="87" height="20" as="geometry"/>
                </mxCell>
                <mxCell id="162" value="&lt;span style=&quot;font-size: 18px;&quot;&gt;Branch ID:&lt;/span&gt;" style="text;html=1;strokeColor=none;fillColor=none;align=left;verticalAlign=middle;whiteSpace=wrap;rounded=0;" parent="1" vertex="1">
                    <mxGeometry x="1592.5" y="4937.5" width="177.5" height="30" as="geometry"/>
                </mxCell>
                <mxCell id="163" value="&lt;span style=&quot;font-size: 18px;&quot;&gt;F_Name:&lt;/span&gt;" style="text;html=1;strokeColor=none;fillColor=none;align=left;verticalAlign=middle;whiteSpace=wrap;rounded=0;" parent="1" vertex="1">
                    <mxGeometry x="1592.5" y="4992.5" width="177.5" height="30" as="geometry"/>
                </mxCell>
                <mxCell id="164" value="&lt;span style=&quot;font-size: 18px;&quot;&gt;L_Name:&lt;/span&gt;" style="text;html=1;strokeColor=none;fillColor=none;align=left;verticalAlign=middle;whiteSpace=wrap;rounded=0;" parent="1" vertex="1">
                    <mxGeometry x="1592.5" y="5045" width="177.5" height="30" as="geometry"/>
                </mxCell>
                <mxCell id="165" value="&lt;span style=&quot;font-size: 18px;&quot;&gt;Phone&lt;/span&gt;" style="text;html=1;strokeColor=none;fillColor=none;align=left;verticalAlign=middle;whiteSpace=wrap;rounded=0;" parent="1" vertex="1">
                    <mxGeometry x="1592.5" y="5102.5" width="177.5" height="30" as="geometry"/>
                </mxCell>
                <mxCell id="166" value="&lt;span style=&quot;font-size: 18px;&quot;&gt;Account&lt;br&gt;Type&lt;br&gt;&lt;/span&gt;" style="text;html=1;strokeColor=none;fillColor=none;align=left;verticalAlign=middle;whiteSpace=wrap;rounded=0;" parent="1" vertex="1">
                    <mxGeometry x="1592.5" y="5162.5" width="177.5" height="30" as="geometry"/>
                </mxCell>
                <mxCell id="170" value="Pay Fee" style="rounded=1;whiteSpace=wrap;html=1;" vertex="1" parent="1">
                    <mxGeometry x="-20" y="4110" width="140" height="40" as="geometry"/>
                </mxCell>
                <mxCell id="171" value="Add Fee" style="rounded=1;whiteSpace=wrap;html=1;" vertex="1" parent="1">
                    <mxGeometry x="137.5" y="4110" width="132.5" height="40" as="geometry"/>
                </mxCell>
                <mxCell id="172" value="&lt;span style=&quot;font-size: 18px;&quot;&gt;Total Fee(s):&lt;/span&gt;" style="text;html=1;strokeColor=none;fillColor=none;align=left;verticalAlign=middle;whiteSpace=wrap;rounded=0;" vertex="1" parent="1">
                    <mxGeometry x="-315" y="4386" width="200" height="30" as="geometry"/>
                </mxCell>
                <mxCell id="173" value="&lt;span style=&quot;font-size: 18px;&quot;&gt;Account Lock:&lt;/span&gt;" style="text;html=1;strokeColor=none;fillColor=none;align=left;verticalAlign=middle;whiteSpace=wrap;rounded=0;" vertex="1" parent="1">
                    <mxGeometry x="-490" y="4386" width="200" height="30" as="geometry"/>
                </mxCell>
                <mxCell id="175" value="" style="verticalLabelPosition=bottom;verticalAlign=top;html=1;shape=mxgraph.basic.patternFillRect;fillStyle=diagGrid;step=5;fillStrokeWidth=0.2;fillStrokeColor=#dddddd;" vertex="1" parent="1">
                    <mxGeometry x="1018.75" y="4842.5" width="441.25" height="260" as="geometry"/>
                </mxCell>
                <mxCell id="176" value="&lt;span style=&quot;font-size: 18px;&quot;&gt;ITEM ID:&lt;/span&gt;" style="text;html=1;strokeColor=none;fillColor=none;align=left;verticalAlign=middle;whiteSpace=wrap;rounded=0;" vertex="1" parent="1">
                    <mxGeometry x="1051.25" y="4900" width="177.5" height="30" as="geometry"/>
                </mxCell>
                <mxCell id="177" value="" style="verticalLabelPosition=bottom;verticalAlign=top;html=1;shape=mxgraph.basic.rect;fillColor2=none;strokeWidth=1;size=20;indent=5;" vertex="1" parent="1">
                    <mxGeometry x="1160" y="4900" width="200" height="25" as="geometry"/>
                </mxCell>
                <mxCell id="178" value="&lt;span style=&quot;font-size: 18px;&quot;&gt;PATRON ID:&lt;/span&gt;" style="text;html=1;strokeColor=none;fillColor=none;align=left;verticalAlign=middle;whiteSpace=wrap;rounded=0;" vertex="1" parent="1">
                    <mxGeometry x="1051.25" y="4950" width="177.5" height="30" as="geometry"/>
                </mxCell>
                <mxCell id="179" value="" style="verticalLabelPosition=bottom;verticalAlign=top;html=1;shape=mxgraph.basic.rect;fillColor2=none;strokeWidth=1;size=20;indent=5;" vertex="1" parent="1">
                    <mxGeometry x="1160" y="4950" width="200" height="25" as="geometry"/>
                </mxCell>
                <mxCell id="180" value="RETURN" style="rounded=1;whiteSpace=wrap;html=1;" vertex="1" parent="1">
                    <mxGeometry x="1130" y="5025" width="87" height="20" as="geometry"/>
                </mxCell>
                <mxCell id="181" value="CANCEL" style="rounded=1;whiteSpace=wrap;html=1;" vertex="1" parent="1">
                    <mxGeometry x="1290" y="5022.5" width="87" height="20" as="geometry"/>
                </mxCell>
                <mxCell id="183" value="DROPWDOWN" style="text;strokeColor=none;fillColor=none;align=left;verticalAlign=top;spacingLeft=4;spacingRight=4;overflow=hidden;rotatable=0;points=[[0,0.5],[1,0.5]];portConstraint=eastwest;whiteSpace=wrap;html=1;" vertex="1" parent="1">
                    <mxGeometry x="1700" y="4937.5" width="360" height="26" as="geometry"/>
                </mxCell>
                <mxCell id="184" value="DROPWDOWN" style="text;strokeColor=none;fillColor=none;align=left;verticalAlign=top;spacingLeft=4;spacingRight=4;overflow=hidden;rotatable=0;points=[[0,0.5],[1,0.5]];portConstraint=eastwest;whiteSpace=wrap;html=1;" vertex="1" parent="1">
                    <mxGeometry x="1700" y="5160" width="360" height="26" as="geometry"/>
                </mxCell>
                <mxCell id="188" value="" style="verticalLabelPosition=bottom;verticalAlign=top;html=1;shape=mxgraph.basic.patternFillRect;fillStyle=diagGrid;step=5;fillStrokeWidth=0.2;fillStrokeColor=#dddddd;" vertex="1" parent="1">
                    <mxGeometry x="2020" y="4872.5" width="440" height="260" as="geometry"/>
                </mxCell>
                <mxCell id="190" value="FEES" style="rounded=1;whiteSpace=wrap;html=1;" vertex="1" parent="1">
                    <mxGeometry x="2200" y="4770" width="127" height="40" as="geometry"/>
                </mxCell>
                <mxCell id="192" value="" style="verticalLabelPosition=bottom;verticalAlign=top;html=1;shape=mxgraph.basic.rect;fillColor2=none;strokeWidth=1;size=20;indent=5;" vertex="1" parent="1">
                    <mxGeometry x="2200" y="4922.5" width="200" height="25" as="geometry"/>
                </mxCell>
                <mxCell id="193" value="&lt;span style=&quot;font-size: 18px;&quot;&gt;FEE AMOUNT:&lt;/span&gt;" style="text;html=1;strokeColor=none;fillColor=none;align=left;verticalAlign=middle;whiteSpace=wrap;rounded=0;" vertex="1" parent="1">
                    <mxGeometry x="2050" y="4922.5" width="177.5" height="30" as="geometry"/>
                </mxCell>
                <mxCell id="194" value="&lt;span style=&quot;font-size: 18px;&quot;&gt;PATRON ID:&lt;/span&gt;" style="text;html=1;strokeColor=none;fillColor=none;align=left;verticalAlign=middle;whiteSpace=wrap;rounded=0;" vertex="1" parent="1">
                    <mxGeometry x="2050" y="4987.5" width="177.5" height="30" as="geometry"/>
                </mxCell>
                <mxCell id="195" value="" style="verticalLabelPosition=bottom;verticalAlign=top;html=1;shape=mxgraph.basic.rect;fillColor2=none;strokeWidth=1;size=20;indent=5;" vertex="1" parent="1">
                    <mxGeometry x="2200" y="4987.5" width="200" height="25" as="geometry"/>
                </mxCell>
                <mxCell id="196" value="PAY" style="rounded=1;whiteSpace=wrap;html=1;" vertex="1" parent="1">
                    <mxGeometry x="2095.25" y="5075" width="87" height="20" as="geometry"/>
                </mxCell>
                <mxCell id="197" value="ADD" style="rounded=1;whiteSpace=wrap;html=1;" vertex="1" parent="1">
                    <mxGeometry x="2210" y="5075" width="87" height="20" as="geometry"/>
                </mxCell>
                <mxCell id="198" value="CANCEL" style="rounded=1;whiteSpace=wrap;html=1;" vertex="1" parent="1">
                    <mxGeometry x="2327" y="5075" width="87" height="20" as="geometry"/>
                </mxCell>
                <mxCell id="199" value="" style="verticalLabelPosition=bottom;verticalAlign=top;html=1;shape=mxgraph.basic.patternFillRect;fillStyle=diagGrid;step=5;fillStrokeWidth=0.2;fillStrokeColor=#dddddd;" vertex="1" parent="1">
                    <mxGeometry x="2102.5" y="4144" width="307.5" height="330" as="geometry"/>
                </mxCell>
                <mxCell id="200" value="" style="verticalLabelPosition=bottom;verticalAlign=top;html=1;shape=mxgraph.basic.x" vertex="1" parent="1">
                    <mxGeometry x="2193.5" y="4205" width="140" height="185" as="geometry"/>
                </mxCell>
            </root>
        </mxGraphModel>
    </diagram>
</mxfile>